<svg xmlns="http://www.w3.org/2000/svg" xmlns:xlink="http://www.w3.org/1999/xlink" width="600" zoomAndPan="magnify" viewBox="0 0 450 449.999984" height="600" preserveAspectRatio="xMidYMid meet" version="1.0"><defs><clipPath id="2babf5119b"><path d="M 49 21 L 419 21 L 419 431.445312 L 49 431.445312 Z M 49 21 " clip-rule="nonzero"/></clipPath></defs><path fill="#47667b" d="M 81.285156 389.027344 C 81.792969 389.324219 82.289062 389.628906 82.808594 389.910156 C 89.375 393.457031 96.132812 396.625 102.917969 399.738281 C 106.054688 401.175781 109.140625 402.75 112.128906 404.476562 C 113.800781 405.441406 115.320312 406.734375 116.695312 408.101562 C 117.699219 409.097656 118.539062 410.371094 119.140625 411.664062 C 121.183594 416.078125 119.4375 420.800781 115.089844 422.984375 C 113.035156 424.019531 110.800781 424.457031 108.539062 424.375 C 105.445312 424.257812 102.332031 424.09375 99.261719 423.667969 C 93.648438 422.875 88.148438 421.5 82.757812 419.738281 C 71.941406 416.199219 61.265625 412.273438 51.050781 407.246094 C 47.371094 405.433594 43.839844 403.316406 40.324219 401.203125 C 37.992188 399.804688 35.984375 397.949219 34.453125 395.671875 C 30.949219 390.417969 30.476562 384.976562 33.605469 379.378906 C 34.289062 378.160156 34.585938 376.878906 34.71875 375.519531 C 35.878906 363.757812 37.054688 351.992188 38.199219 340.230469 C 38.816406 333.890625 39.625 327.585938 41.1875 321.40625 C 42.101562 317.800781 43.277344 314.292969 45.128906 311.050781 C 46.441406 308.761719 48.085938 306.769531 50.257812 305.238281 C 56.070312 301.148438 63.757812 302.28125 68.128906 307.886719 C 70.328125 310.703125 71.324219 313.988281 71.703125 317.476562 C 72.140625 321.554688 71.835938 325.601562 70.976562 329.578125 C 69.554688 336.1875 68.039062 342.78125 66.46875 349.351562 C 65.230469 354.511719 63.859375 359.640625 62.558594 364.792969 C 62.464844 365.164062 62.433594 365.550781 62.351562 366.09375 C 62.730469 365.972656 62.984375 365.945312 63.15625 365.816406 C 70.902344 359.828125 79.332031 354.867188 87.613281 349.6875 C 99.574219 342.214844 110.976562 333.992188 121.429688 324.484375 C 131.734375 315.117188 141.101562 304.925781 148.996094 293.417969 C 149.382812 292.847656 149.722656 292.257812 150.207031 291.464844 C 149.558594 291.269531 149.121094 291.097656 148.660156 291.003906 C 135.496094 288.4375 122.9375 284.097656 110.894531 278.253906 C 98.964844 272.46875 88.332031 264.84375 79.382812 255.023438 C 67.800781 242.316406 61.304688 227.269531 59.46875 210.203125 C 58.523438 201.394531 59.28125 192.71875 61.644531 184.160156 C 67.289062 163.71875 84.28125 151.222656 100.308594 147.800781 C 109.296875 145.882812 118.113281 146.261719 126.847656 149.082031 C 133.457031 151.222656 139.710938 154.136719 145.65625 157.710938 C 155.691406 163.746094 165.230469 170.429688 173.394531 178.90625 C 182.550781 188.398438 189.761719 199.132812 194.230469 211.613281 C 199.070312 225.121094 200.117188 238.957031 197.851562 253.074219 C 197.382812 255.988281 196.722656 258.878906 196.148438 261.773438 C 196.042969 262.300781 195.949219 262.828125 195.800781 263.609375 C 196.558594 263.554688 197.136719 263.5625 197.679688 263.460938 C 204.207031 262.300781 210.578125 260.566406 216.761719 258.152344 C 227.304688 254.039062 236.855469 248.226562 245.667969 241.171875 C 263.011719 227.285156 276.6875 210.386719 286.984375 190.734375 C 290.269531 184.472656 292.925781 177.925781 295.140625 171.203125 C 295.28125 170.773438 295.40625 170.339844 295.503906 169.902344 C 295.535156 169.769531 295.460938 169.613281 295.421875 169.332031 C 295 169.308594 294.566406 169.242188 294.136719 169.257812 C 276.273438 169.984375 259.859375 165.152344 244.535156 156.253906 C 236.402344 151.535156 228.679688 146.234375 222.160156 139.394531 C 210.191406 126.824219 203.011719 111.949219 201.261719 94.640625 C 200.371094 85.855469 201.589844 77.222656 204.265625 68.832031 C 205.402344 65.261719 206.785156 61.746094 208.347656 58.347656 C 214.546875 44.863281 225.105469 36.53125 239.296875 32.664062 C 248.082031 30.269531 256.847656 30.671875 265.566406 33.117188 C 276.734375 36.246094 286.441406 42.023438 295.066406 49.652344 C 303.234375 56.875 309.496094 65.597656 314.617188 75.164062 C 321.9375 88.835938 325.992188 103.472656 327.269531 118.882812 C 327.691406 123.96875 327.730469 129.082031 327.9375 134.183594 C 327.960938 134.71875 327.9375 135.253906 327.9375 136.09375 C 328.710938 135.757812 329.261719 135.585938 329.746094 135.304688 C 334.710938 132.503906 339.179688 129.046875 343.238281 125.0625 C 345.304688 123.03125 347.3125 120.90625 349.148438 118.667969 C 362.378906 102.558594 371.367188 84.335938 376.074219 64.027344 C 378.40625 53.992188 378.921875 43.808594 378.117188 33.554688 C 378.050781 32.714844 377.886719 31.890625 377.761719 31.019531 C 377.292969 30.992188 376.957031 30.976562 376.609375 30.953125 C 374.371094 30.796875 373.121094 29.386719 373.375 27.148438 C 373.941406 22.046875 378.726562 18.515625 383.804688 20.152344 C 386.289062 20.957031 388.167969 22.5625 389.625 24.679688 C 391.296875 27.097656 392.390625 29.78125 393.121094 32.613281 C 394.546875 38.113281 395.261719 43.71875 395.558594 49.390625 C 396.191406 61.648438 394.160156 73.535156 390.726562 85.257812 C 385.492188 103.125 377.226562 119.425781 365.429688 133.847656 C 354.917969 146.707031 341.972656 156.320312 326.4375 162.335938 C 325.320312 162.773438 324.628906 163.332031 324.339844 164.59375 C 317.804688 193.296875 304.378906 218.445312 285.125 240.585938 C 274.339844 252.992188 262.191406 263.800781 248.296875 272.632812 C 232.054688 282.953125 214.363281 289.277344 195.316406 291.863281 C 192.1875 292.289062 189.050781 292.601562 185.90625 292.898438 C 184.847656 292.996094 184.171875 293.433594 183.675781 294.378906 C 172.121094 316.269531 156.660156 335.027344 138.058594 351.261719 C 123.125 364.300781 106.835938 375.371094 89.351562 384.707031 C 87.144531 385.882812 84.839844 386.878906 82.585938 387.964844 C 82.148438 388.179688 81.710938 388.394531 81.285156 388.617188 L 81.25 389.011719 Z M 87.324219 202.152344 C 87.335938 214.410156 91.820312 226.125 100.011719 235.03125 C 104.265625 239.664062 109.164062 243.566406 114.40625 247.023438 C 122.917969 252.628906 132.195312 256.613281 141.792969 259.921875 C 148.585938 262.269531 155.542969 263.914062 162.6875 264.761719 C 164.316406 264.953125 164.503906 264.910156 164.984375 263.347656 C 166.101562 259.707031 167.304688 256.085938 168.160156 252.390625 C 170.277344 243.246094 170.539062 234.042969 168.539062 224.824219 C 166.167969 213.875 160.667969 204.640625 152.941406 196.6875 C 144.765625 188.265625 135.042969 182.101562 124.300781 177.492188 C 122.699219 176.800781 121.019531 176.28125 119.347656 175.746094 C 113.699219 173.945312 108.046875 174.164062 102.523438 176.140625 C 95.917969 178.503906 91.261719 182.90625 89.105469 189.714844 C 87.820312 193.765625 87.308594 197.921875 87.335938 202.160156 Z M 301.761719 132.902344 C 301.667969 123.171875 300.996094 115.144531 299.363281 107.21875 C 297.117188 96.300781 293.109375 86.128906 286.589844 77.007812 C 281.015625 69.21875 273.96875 63.226562 265.269531 59.210938 C 261.835938 57.628906 258.246094 56.558594 254.492188 56.066406 C 247.5625 55.160156 237.363281 57.761719 232.613281 67.203125 C 230.507812 71.386719 228.828125 75.707031 227.914062 80.316406 C 227.117188 84.367188 226.769531 88.464844 227.378906 92.566406 C 229.035156 103.710938 233.726562 113.441406 241.636719 121.433594 C 249.890625 129.78125 259.597656 136.128906 270.355469 140.820312 C 279.558594 144.84375 289.183594 146.152344 299.160156 144.945312 C 300.878906 144.738281 301.003906 144.664062 301.117188 142.933594 C 301.390625 139.042969 301.613281 135.140625 301.75 132.890625 Z M 301.761719 132.902344 " fill-opacity="1" fill-rule="nonzero"/><path fill="#ffffff" d="M 101.863281 393.308594 C 102.375 393.605469 102.867188 393.910156 103.386719 394.1875 C 109.953125 397.738281 116.714844 400.90625 123.496094 404.015625 C 126.632812 405.457031 129.71875 407.03125 132.707031 408.757812 C 134.378906 409.722656 135.902344 411.015625 137.277344 412.378906 C 138.28125 413.375 139.121094 414.652344 139.71875 415.945312 C 141.761719 420.355469 140.015625 425.082031 135.671875 427.261719 C 133.613281 428.300781 131.382812 428.738281 129.117188 428.65625 C 126.023438 428.539062 122.910156 428.375 119.839844 427.945312 C 114.226562 427.15625 108.726562 425.78125 103.335938 424.019531 C 92.519531 420.480469 81.84375 416.554688 71.628906 411.523438 C 67.949219 409.714844 64.417969 407.597656 60.902344 405.484375 C 58.574219 404.082031 56.566406 402.230469 55.035156 399.949219 C 51.527344 394.699219 51.058594 389.257812 54.183594 383.660156 C 54.867188 382.441406 55.164062 381.15625 55.296875 379.800781 C 56.457031 368.035156 57.632812 356.273438 58.777344 344.511719 C 59.394531 338.171875 60.203125 331.867188 61.765625 325.683594 C 62.679688 322.078125 63.859375 318.574219 65.710938 315.328125 C 67.019531 313.042969 68.664062 311.050781 70.839844 309.519531 C 76.648438 305.425781 84.339844 306.5625 88.710938 312.167969 C 90.90625 314.984375 91.902344 318.269531 92.28125 321.757812 C 92.71875 325.832031 92.414062 329.882812 91.558594 333.859375 C 90.132812 340.46875 88.617188 347.0625 87.046875 353.632812 C 85.8125 358.792969 84.4375 363.921875 83.136719 369.074219 C 83.046875 369.445312 83.011719 369.832031 82.929688 370.375 C 83.308594 370.25 83.5625 370.226562 83.738281 370.09375 C 91.484375 364.109375 99.914062 359.148438 108.191406 353.96875 C 120.152344 346.496094 131.554688 338.269531 142.007812 328.765625 C 152.316406 319.394531 161.683594 309.207031 169.578125 297.699219 C 169.964844 297.128906 170.300781 296.535156 170.785156 295.746094 C 170.136719 295.550781 169.699219 295.375 169.238281 295.285156 C 156.078125 292.71875 143.515625 288.378906 131.472656 282.535156 C 119.542969 276.75 108.910156 269.125 99.960938 259.304688 C 88.378906 246.597656 81.886719 231.546875 80.050781 214.484375 C 79.101562 205.675781 79.859375 197 82.222656 188.4375 C 87.871094 168 104.859375 155.503906 120.886719 152.082031 C 129.875 150.164062 138.691406 150.539062 147.425781 153.363281 C 154.035156 155.503906 160.292969 158.417969 166.234375 161.992188 C 176.269531 168.023438 185.808594 174.710938 193.976562 183.1875 C 203.128906 192.679688 210.339844 203.414062 214.808594 215.890625 C 219.648438 229.398438 220.695312 243.238281 218.429688 257.355469 C 217.960938 260.269531 217.304688 263.15625 216.726562 266.054688 C 216.621094 266.582031 216.53125 267.109375 216.382812 267.890625 C 217.140625 267.832031 217.714844 267.839844 218.257812 267.742188 C 224.785156 266.582031 231.15625 264.84375 237.339844 262.433594 C 247.882812 258.316406 257.433594 252.507812 266.25 245.453125 C 283.59375 231.566406 297.265625 214.664062 307.5625 195.015625 C 310.847656 188.753906 313.507812 182.207031 315.722656 175.484375 C 315.859375 175.054688 315.984375 174.617188 316.082031 174.183594 C 316.117188 174.050781 316.042969 173.894531 316 173.613281 C 315.582031 173.589844 315.144531 173.523438 314.714844 173.539062 C 296.855469 174.265625 280.441406 169.433594 265.113281 160.535156 C 256.980469 155.816406 249.257812 150.515625 242.738281 143.675781 C 230.769531 131.105469 223.59375 116.230469 221.839844 98.921875 C 220.949219 90.136719 222.167969 81.503906 224.84375 73.113281 C 225.980469 69.542969 227.363281 66.027344 228.925781 62.628906 C 235.125 49.144531 245.6875 40.8125 259.878906 36.945312 C 268.660156 34.550781 277.425781 34.953125 286.144531 37.398438 C 297.316406 40.523438 307.019531 46.304688 315.648438 53.933594 C 323.8125 61.152344 330.078125 69.878906 335.195312 79.445312 C 342.515625 93.117188 346.574219 107.753906 347.847656 123.164062 C 348.269531 128.25 348.308594 133.363281 348.515625 138.464844 C 348.539062 139 348.515625 139.535156 348.515625 140.375 C 349.289062 140.039062 349.839844 139.863281 350.328125 139.585938 C 355.289062 136.785156 359.761719 133.328125 363.816406 129.34375 C 365.882812 127.3125 367.894531 125.1875 369.726562 122.949219 C 382.957031 106.839844 391.945312 88.613281 396.652344 68.308594 C 398.984375 58.273438 399.503906 48.089844 398.695312 37.832031 C 398.628906 36.992188 398.464844 36.171875 398.339844 35.296875 C 397.871094 35.273438 397.535156 35.257812 397.1875 35.230469 C 394.949219 35.074219 393.699219 33.667969 393.953125 31.429688 C 394.523438 26.324219 399.304688 22.792969 404.382812 24.433594 C 406.871094 25.238281 408.746094 26.84375 410.203125 28.960938 C 411.875 31.378906 412.96875 34.0625 413.703125 36.894531 C 415.125 42.394531 415.84375 48 416.136719 53.671875 C 416.773438 65.929688 414.738281 77.816406 411.304688 89.535156 C 406.070312 107.40625 397.804688 123.707031 386.011719 138.128906 C 375.5 150.984375 362.550781 160.601562 347.015625 166.617188 C 345.898438 167.054688 345.207031 167.613281 344.917969 168.871094 C 338.382812 197.578125 324.957031 222.722656 305.703125 244.867188 C 294.917969 257.273438 282.769531 268.082031 268.875 276.914062 C 252.632812 287.234375 234.945312 293.558594 215.894531 296.140625 C 212.769531 296.570312 209.632812 296.882812 206.488281 297.179688 C 205.425781 297.277344 204.75 297.714844 204.257812 298.660156 C 192.699219 320.546875 177.238281 339.308594 158.636719 355.542969 C 143.703125 368.582031 127.414062 379.652344 109.929688 388.988281 C 107.722656 390.164062 105.417969 391.160156 103.164062 392.246094 C 102.726562 392.460938 102.292969 392.675781 101.863281 392.898438 L 101.832031 393.292969 Z M 107.90625 206.433594 C 107.914062 218.691406 112.398438 230.402344 120.589844 239.3125 C 124.847656 243.945312 129.742188 247.847656 134.988281 251.304688 C 143.5 256.910156 152.777344 260.894531 162.375 264.203125 C 169.164062 266.550781 176.121094 268.195312 183.265625 269.042969 C 184.894531 269.234375 185.085938 269.191406 185.5625 267.628906 C 186.683594 263.988281 187.882812 260.367188 188.738281 256.671875 C 190.855469 247.527344 191.117188 238.324219 189.117188 229.105469 C 186.746094 218.15625 181.25 208.917969 173.519531 200.96875 C 165.34375 192.546875 155.625 186.382812 144.882812 181.773438 C 143.277344 181.082031 141.597656 180.5625 139.925781 180.027344 C 134.277344 178.222656 128.625 178.445312 123.101562 180.421875 C 116.5 182.785156 111.839844 187.1875 109.683594 193.996094 C 108.398438 198.046875 107.886719 202.203125 107.914062 206.441406 Z M 322.339844 137.179688 C 322.25 127.453125 321.574219 119.425781 319.945312 111.5 C 317.695312 100.582031 313.6875 90.410156 307.167969 81.289062 C 301.59375 73.5 294.550781 67.507812 285.847656 63.492188 C 282.414062 61.910156 278.828125 60.839844 275.074219 60.347656 C 268.140625 59.441406 257.941406 62.042969 253.191406 71.484375 C 251.085938 75.667969 249.40625 79.988281 248.492188 84.597656 C 247.695312 88.648438 247.347656 92.746094 247.957031 96.847656 C 249.613281 107.992188 254.304688 117.722656 262.214844 125.714844 C 270.472656 134.0625 280.175781 140.40625 290.933594 145.101562 C 300.136719 149.125 309.761719 150.433594 319.738281 149.222656 C 321.457031 149.019531 321.582031 148.945312 321.695312 147.214844 C 321.96875 143.320312 322.191406 139.421875 322.332031 137.171875 Z M 322.339844 137.179688 " fill-opacity="1" fill-rule="nonzero"/><g clip-path="url(#2babf5119b)"><path fill="#47667b" d="M 401.90625 21.371094 C 403.015625 21.371094 404.144531 21.542969 405.238281 21.898438 C 408.121094 22.828125 410.550781 24.703125 412.449219 27.460938 C 414.1875 29.980469 415.464844 32.863281 416.335938 36.253906 C 417.703125 41.53125 418.527344 47.191406 418.855469 53.5625 C 419.449219 64.941406 417.835938 76.964844 413.914062 90.328125 C 408.464844 108.929688 399.789062 125.597656 388.125 139.871094 C 377.203125 153.242188 363.703125 163.09375 348.011719 169.167969 C 347.765625 169.269531 347.652344 169.332031 347.609375 169.359375 C 347.609375 169.375 347.59375 169.425781 347.578125 169.507812 C 341.15625 197.707031 327.761719 223.671875 307.769531 246.667969 C 296.476562 259.667969 283.878906 270.617188 270.355469 279.21875 C 254.058594 289.582031 235.867188 296.183594 216.300781 298.84375 C 213.074219 299.277344 209.828125 299.597656 206.785156 299.886719 C 206.75 299.886719 206.726562 299.886719 206.699219 299.894531 C 206.699219 299.902344 206.683594 299.921875 206.675781 299.9375 C 195.433594 321.222656 179.882812 340.625 160.449219 357.589844 C 145.730469 370.441406 129.167969 381.808594 111.238281 391.382812 C 109.972656 392.058594 108.6875 392.675781 107.417969 393.265625 C 113.3125 396.335938 119.332031 399.128906 124.625 401.554688 C 127.972656 403.09375 131.152344 404.726562 134.058594 406.414062 C 135.746094 407.390625 137.414062 408.710938 139.175781 410.453125 C 140.363281 411.632812 141.398438 413.136719 142.171875 414.800781 C 144.824219 420.539062 142.601562 426.792969 136.886719 429.667969 C 134.46875 430.886719 131.816406 431.445312 129.027344 431.347656 C 126 431.238281 122.746094 431.066406 119.480469 430.613281 C 114.039062 429.847656 108.488281 428.53125 102.511719 426.582031 C 89.34375 422.273438 79.449219 418.375 70.453125 413.9375 C 66.617188 412.050781 62.851562 409.789062 59.527344 407.789062 C 56.777344 406.140625 54.515625 404 52.8125 401.449219 C 48.660156 395.242188 48.332031 388.640625 51.847656 382.34375 C 52.277344 381.585938 52.515625 380.722656 52.628906 379.535156 L 53.863281 367.089844 C 54.621094 359.476562 55.378906 351.871094 56.113281 344.253906 C 56.671875 338.535156 57.46875 331.777344 59.175781 325.027344 C 60.300781 320.558594 61.644531 317.050781 63.398438 313.988281 C 65.019531 311.148438 66.953125 308.96875 69.316406 307.304688 C 76.328125 302.375 85.589844 303.746094 90.867188 310.496094 C 93.171875 313.445312 94.519531 317.027344 94.988281 321.460938 C 95.433594 325.621094 95.179688 329.980469 94.214844 334.425781 C 92.882812 340.609375 91.402344 347.105469 89.6875 354.257812 C 88.890625 357.597656 88.027344 360.964844 87.179688 364.234375 C 92.183594 360.726562 97.367188 357.515625 102.429688 354.378906 C 103.878906 353.484375 105.328125 352.585938 106.777344 351.679688 C 119.765625 343.554688 130.699219 335.40625 140.207031 326.773438 C 150.765625 317.164062 159.371094 307.574219 166.457031 297.484375 C 154.257812 294.898438 142.109375 290.699219 130.304688 284.972656 C 117.683594 278.847656 106.808594 270.828125 97.976562 261.132812 C 86.222656 248.226562 79.292969 232.636719 77.382812 214.78125 C 76.410156 205.757812 77.175781 196.65625 79.636719 187.730469 C 86.050781 164.519531 105.566406 152.605469 120.34375 149.453125 C 129.84375 147.429688 139.242188 147.882812 148.28125 150.8125 C 154.890625 152.953125 161.410156 155.941406 167.648438 159.695312 C 179.890625 167.054688 188.617188 173.730469 195.941406 181.328125 C 205.976562 191.730469 212.988281 202.746094 217.371094 214.996094 C 222.226562 228.558594 223.492188 242.964844 221.113281 257.800781 C 220.785156 259.847656 220.367188 261.882812 219.953125 263.859375 C 219.894531 264.152344 219.832031 264.449219 219.773438 264.738281 C 225.550781 263.601562 231.132812 261.988281 236.375 259.9375 C 246.222656 256.09375 255.449219 250.671875 264.585938 243.359375 C 281.296875 229.984375 294.960938 213.300781 305.191406 193.78125 C 308 188.429688 310.4375 182.703125 312.617188 176.324219 C 295.792969 176.601562 279.804688 172.199219 263.769531 162.898438 C 253.917969 157.183594 246.617188 151.675781 240.796875 145.5625 C 228.21875 132.355469 220.941406 116.765625 219.164062 99.207031 C 218.292969 90.582031 219.335938 81.535156 222.285156 72.316406 C 223.429688 68.726562 224.84375 65.097656 226.488281 61.515625 C 232.851562 47.671875 243.851562 38.535156 259.1875 34.359375 C 267.960938 31.972656 277.277344 32.121094 286.894531 34.820312 C 297.941406 37.914062 307.941406 43.511719 317.457031 51.933594 C 325.238281 58.808594 331.820312 67.402344 337.601562 78.191406 C 344.859375 91.757812 349.222656 106.824219 350.558594 122.964844 C 350.851562 126.570312 350.96875 130.207031 351.074219 133.730469 C 351.101562 134.488281 351.125 135.246094 351.148438 136.003906 C 354.953125 133.632812 358.574219 130.769531 361.949219 127.453125 C 364.179688 125.253906 366.058594 123.238281 367.671875 121.269531 C 380.585938 105.53125 389.46875 87.519531 394.054688 67.730469 C 396.21875 58.386719 396.867188 48.691406 396.035156 38.082031 C 396.035156 38 396.019531 37.90625 396.011719 37.816406 C 394.597656 37.527344 393.417969 36.855469 392.570312 35.839844 C 391.847656 34.976562 391.046875 33.460938 391.304688 31.15625 C 391.683594 27.773438 393.484375 24.8125 396.25 23.023438 C 397.945312 21.929688 399.90625 21.363281 401.90625 21.363281 Z M 129.660156 425.972656 C 131.382812 425.972656 132.996094 425.59375 134.46875 424.859375 C 137.53125 423.320312 138.683594 420.125 137.277344 417.082031 C 136.78125 416.011719 136.105469 415.023438 135.382812 414.296875 C 133.957031 412.882812 132.640625 411.835938 131.367188 411.097656 C 128.597656 409.492188 125.578125 407.945312 122.382812 406.46875 C 116.1875 403.628906 109 400.28125 102.117188 396.558594 C 101.738281 396.355469 101.359375 396.132812 100.992188 395.910156 L 99.039062 394.773438 L 99.359375 391.167969 L 101.113281 390.296875 C 101.425781 390.140625 101.738281 389.984375 102.0625 389.824219 C 102.792969 389.472656 103.542969 389.125 104.285156 388.78125 C 105.832031 388.066406 107.296875 387.382812 108.726562 386.617188 C 126.304688 377.238281 142.519531 366.101562 156.933594 353.523438 C 175.867188 336.996094 191.003906 318.121094 201.933594 297.417969 C 202.855469 295.679688 204.320312 294.703125 206.296875 294.511719 C 209.285156 294.222656 212.464844 293.910156 215.597656 293.492188 C 234.390625 290.941406 251.851562 284.601562 267.492188 274.65625 C 280.578125 266.335938 292.777344 255.726562 303.726562 243.121094 C 323.128906 220.796875 336.117188 195.625 342.34375 168.296875 C 342.949219 165.621094 344.777344 164.632812 346.09375 164.125 C 360.902344 158.386719 373.648438 149.074219 383.976562 136.441406 C 395.179688 122.734375 403.527344 106.699219 408.769531 88.796875 C 412.507812 76.027344 414.054688 64.585938 413.496094 53.828125 C 413.183594 47.820312 412.410156 42.507812 411.140625 37.585938 C 410.425781 34.8125 409.414062 32.5 408.039062 30.507812 C 406.8125 28.722656 405.363281 27.585938 403.609375 27.015625 C 402.070312 26.523438 400.507812 26.703125 399.207031 27.542969 C 397.804688 28.449219 396.882812 29.980469 396.6875 31.742188 C 396.636719 32.152344 396.710938 32.34375 396.738281 32.367188 C 396.761719 32.402344 396.957031 32.523438 397.429688 32.558594 L 400.746094 32.753906 L 401.058594 34.9375 C 401.097656 35.199219 401.140625 35.453125 401.179688 35.71875 C 401.28125 36.335938 401.386719 36.96875 401.4375 37.652344 C 402.308594 48.824219 401.625 59.0625 399.328125 68.941406 C 394.554688 89.542969 385.3125 108.296875 371.859375 124.683594 C 370.125 126.800781 368.132812 128.957031 365.753906 131.296875 C 361.414062 135.558594 356.691406 139.148438 351.703125 141.957031 C 351.222656 142.226562 350.777344 142.40625 350.300781 142.597656 C 350.105469 142.679688 349.882812 142.769531 349.636719 142.867188 L 345.875 144.492188 L 345.875 139.601562 C 345.875 139.214844 345.882812 138.902344 345.875 138.589844 C 345.808594 137.023438 345.757812 135.453125 345.71875 133.886719 C 345.609375 130.429688 345.503906 126.859375 345.214844 123.402344 C 343.9375 108 339.789062 93.644531 332.875 80.730469 C 327.402344 70.503906 321.203125 62.40625 313.917969 55.960938 C 305.019531 48.089844 295.71875 42.871094 285.46875 40 C 276.6875 37.539062 268.5625 37.390625 260.632812 39.554688 C 246.722656 43.339844 237.175781 51.257812 231.429688 63.753906 C 229.882812 67.128906 228.546875 70.554688 227.460938 73.9375 C 224.746094 82.449219 223.773438 90.761719 224.570312 98.648438 C 226.226562 114.980469 233.007812 129.5 244.738281 141.824219 C 250.195312 147.554688 257.113281 152.753906 266.511719 158.210938 C 282.339844 167.390625 298.089844 171.53125 314.660156 170.855469 C 315.136719 170.839844 315.554688 170.871094 315.902344 170.90625 C 316.007812 170.914062 316.117188 170.929688 316.230469 170.929688 L 318.371094 171.0625 L 318.726562 173.179688 C 318.808594 173.53125 318.9375 174.101562 318.773438 174.800781 C 318.652344 175.308594 318.511719 175.828125 318.347656 176.332031 C 315.925781 183.664062 313.203125 190.183594 310.015625 196.269531 C 299.429688 216.453125 285.296875 233.703125 268.003906 247.558594 C 258.4375 255.214844 248.75 260.910156 238.382812 264.953125 C 232.21875 267.355469 225.625 269.191406 218.792969 270.402344 C 218.257812 270.492188 217.765625 270.515625 217.285156 270.542969 C 217.089844 270.550781 216.875 270.566406 216.636719 270.582031 L 213.128906 270.847656 L 213.921875 266.679688 C 214.003906 266.246094 214.070312 265.890625 214.140625 265.535156 C 214.324219 264.605469 214.519531 263.675781 214.710938 262.746094 C 215.105469 260.835938 215.515625 258.859375 215.820312 256.933594 C 218.050781 243.007812 216.875 229.507812 212.324219 216.804688 C 208.199219 205.296875 201.582031 194.910156 192.089844 185.0625 C 185.101562 177.820312 176.722656 171.417969 164.902344 164.3125 C 159.015625 160.773438 152.875 157.957031 146.652344 155.941406 C 138.410156 153.273438 130.1875 152.871094 121.503906 154.722656 C 108.210938 157.5625 90.644531 168.28125 84.875 189.15625 C 82.59375 197.429688 81.886719 205.847656 82.78125 214.195312 C 84.570312 230.882812 91.039062 245.453125 102.003906 257.484375 C 110.375 266.671875 120.695312 274.277344 132.691406 280.097656 C 144.808594 285.976562 157.292969 290.191406 169.796875 292.628906 C 170.269531 292.71875 170.671875 292.847656 171.066406 292.980469 C 171.230469 293.039062 171.414062 293.097656 171.609375 293.152344 L 174.976562 294.175781 L 173.117188 297.164062 C 172.953125 297.425781 172.804688 297.664062 172.671875 297.894531 C 172.375 298.382812 172.121094 298.808594 171.839844 299.210938 C 164.339844 310.136719 155.1875 320.449219 143.859375 330.746094 C 134.113281 339.605469 122.929688 347.945312 109.667969 356.242188 C 108.21875 357.148438 106.761719 358.050781 105.304688 358.949219 C 98.628906 363.082031 91.714844 367.355469 85.433594 372.210938 C 84.890625 372.628906 84.355469 372.769531 84.023438 372.851562 C 83.96875 372.867188 83.902344 372.886719 83.828125 372.910156 L 79.644531 374.300781 L 80.3125 369.9375 C 80.335938 369.773438 80.355469 369.625 80.378906 369.492188 C 80.429688 369.140625 80.46875 368.777344 80.574219 368.382812 C 81.011719 366.652344 81.457031 364.925781 81.902344 363.203125 C 82.765625 359.855469 83.664062 356.390625 84.476562 352.980469 C 86.183594 345.859375 87.648438 339.40625 88.972656 333.257812 C 89.8125 329.382812 90.042969 325.59375 89.65625 322.015625 C 89.285156 318.566406 88.332031 315.957031 86.644531 313.796875 C 83.167969 309.355469 77.0625 308.449219 72.441406 311.699219 C 70.746094 312.894531 69.324219 314.515625 68.105469 316.648438 C 66.605469 319.273438 65.4375 322.351562 64.433594 326.328125 C 62.8125 332.722656 62.046875 339.234375 61.511719 344.757812 C 60.769531 352.371094 60.011719 359.996094 59.257812 367.609375 L 58.023438 380.054688 C 57.832031 381.988281 57.371094 383.546875 56.582031 384.96875 C 54.046875 389.503906 54.285156 393.910156 57.320312 398.445312 C 58.589844 400.335938 60.269531 401.917969 62.335938 403.160156 C 65.726562 405.203125 69.234375 407.308594 72.863281 409.097656 C 81.628906 413.417969 91.300781 417.230469 104.21875 421.453125 C 109.890625 423.304688 115.132812 424.554688 120.253906 425.269531 C 123.28125 425.699219 126.367188 425.855469 129.25 425.953125 C 129.398438 425.953125 129.546875 425.964844 129.695312 425.964844 Z M 206.617188 299.929688 Z M 272.289062 57.480469 C 273.359375 57.480469 274.40625 57.546875 275.425781 57.6875 C 279.371094 58.207031 283.253906 59.34375 286.984375 61.054688 C 295.921875 65.179688 303.457031 71.460938 309.367188 79.722656 C 315.792969 88.703125 320.117188 98.929688 322.59375 110.964844 C 324.191406 118.71875 324.941406 126.792969 325.046875 137.164062 L 325.046875 137.261719 C 325.046875 137.261719 324.914062 139.394531 324.914062 139.394531 C 324.785156 141.625 324.609375 144.53125 324.40625 147.429688 C 324.191406 150.425781 323.105469 151.5625 320.074219 151.925781 C 309.53125 153.199219 299.371094 151.742188 289.875 147.59375 C 278.40625 142.582031 268.464844 135.863281 260.320312 127.632812 C 252.125 119.34375 247.078125 109.128906 245.316406 97.257812 C 244.722656 93.28125 244.902344 88.976562 245.867188 84.085938 C 246.738281 79.675781 248.351562 75.15625 250.796875 70.28125 C 255.339844 61.246094 264.371094 57.480469 272.300781 57.480469 Z M 319.640625 137.125 C 319.539062 127.164062 318.816406 119.425781 317.300781 112.050781 C 314.980469 100.765625 310.945312 91.222656 304.96875 82.859375 C 299.613281 75.363281 292.796875 69.671875 284.710938 65.945312 C 281.476562 64.453125 278.117188 63.476562 274.71875 63.023438 C 268.28125 62.175781 259.554688 64.839844 255.605469 72.695312 C 253.375 77.125 251.917969 81.191406 251.144531 85.117188 C 250.304688 89.386719 250.140625 93.101562 250.632812 96.449219 C 252.222656 107.160156 256.765625 116.371094 264.140625 123.820312 C 271.804688 131.566406 281.179688 137.898438 292.023438 142.628906 C 300.515625 146.34375 309.605469 147.675781 319.046875 146.597656 C 319.234375 143.863281 319.398438 141.15625 319.523438 139.058594 L 319.640625 137.105469 Z M 132.140625 176.101562 C 135.027344 176.101562 137.894531 176.554688 140.734375 177.457031 L 141.039062 177.558594 C 142.640625 178.066406 144.304688 178.59375 145.925781 179.292969 C 157.789062 184.382812 167.4375 190.859375 175.4375 199.089844 C 183.90625 207.816406 189.390625 217.71875 191.734375 228.535156 C 193.746094 237.804688 193.613281 247.476562 191.347656 257.28125 C 190.632812 260.382812 189.679688 263.429688 188.757812 266.382812 L 188.121094 268.425781 C 187.152344 271.585938 185.480469 272.03125 182.929688 271.726562 C 175.800781 270.878906 168.582031 269.207031 161.476562 266.753906 C 150.074219 262.820312 141.1875 258.621094 133.488281 253.558594 C 127.546875 249.648438 122.671875 245.582031 118.589844 241.136719 C 109.964844 231.753906 105.207031 219.429688 105.195312 206.441406 C 105.171875 201.625 105.789062 197.289062 107.089844 193.179688 C 109.4375 185.765625 114.515625 180.621094 122.171875 177.878906 C 125.496094 176.691406 128.820312 176.09375 132.128906 176.09375 Z M 183.132812 266.320312 L 183.613281 264.78125 C 184.5 261.921875 185.421875 258.976562 186.097656 256.070312 C 188.179688 247.046875 188.3125 238.175781 186.46875 229.679688 C 184.3125 219.726562 179.4375 210.945312 171.570312 202.851562 C 164.078125 195.140625 154.988281 189.058594 143.804688 184.257812 C 142.410156 183.664062 140.945312 183.195312 139.398438 182.703125 L 139.09375 182.601562 C 134.15625 181.03125 129.078125 181.15625 123.996094 182.964844 C 117.921875 185.136719 114.078125 189.015625 112.242188 194.820312 C 111.117188 198.382812 110.570312 202.1875 110.597656 206.433594 L 110.597656 206.449219 C 110.605469 218.089844 114.859375 229.113281 122.566406 237.5 C 126.351562 241.617188 130.894531 245.394531 136.460938 249.066406 C 143.769531 253.878906 152.273438 257.882812 163.238281 261.667969 C 169.839844 263.949219 176.53125 265.511719 183.132812 266.328125 Z M 183.132812 266.320312 " fill-opacity="1" fill-rule="nonzero"/></g></svg>