<svg xmlns="http://www.w3.org/2000/svg" xmlns:xlink="http://www.w3.org/1999/xlink" width="600" zoomAndPan="magnify" viewBox="0 0 450 449.999984" height="600" preserveAspectRatio="xMidYMid meet" version="1.0"><defs><clipPath id="98305838db"><path d="M 68 81 L 389.648438 81 L 389.648438 383.816406 L 68 383.816406 Z M 68 81 " clip-rule="nonzero"/></clipPath><clipPath id="b1d7bca465"><path d="M 60.398438 66 L 384 66 L 384 371 L 60.398438 371 Z M 60.398438 66 " clip-rule="nonzero"/></clipPath></defs><g clip-path="url(#98305838db)"><path fill="#47667b" d="M 333.117188 108.242188 C 332.515625 108.035156 332.140625 107.878906 331.753906 107.773438 C 321.863281 105.1875 311.980469 102.609375 302.089844 100.03125 C 299.429688 99.34375 296.808594 98.558594 294.441406 97.125 C 293.78125 96.726562 293.125 96.316406 292.53125 95.832031 C 290.113281 93.859375 289.632812 91.070312 291.230469 88.378906 C 292.144531 86.839844 293.433594 85.664062 294.941406 84.714844 C 297.683594 82.992188 300.714844 82.179688 303.917969 81.929688 C 307.949219 81.613281 311.953125 81.960938 315.949219 82.394531 C 322.410156 83.097656 328.855469 83.953125 335.320312 84.675781 C 339.394531 85.132812 343.492188 85.40625 347.578125 85.867188 C 352.421875 86.40625 357.25 87.050781 362.089844 87.65625 C 366.359375 88.195312 370.082031 90.089844 373.605469 92.417969 C 375.367188 93.582031 376.574219 95.265625 377.308594 97.226562 C 377.835938 98.621094 378.269531 100.058594 378.597656 101.519531 C 380.097656 108.28125 381.589844 115.046875 382.996094 121.828125 C 385.359375 133.179688 387.410156 144.582031 389.054688 156.058594 C 389.496094 159.121094 389.566406 162.191406 388.902344 165.246094 C 388.152344 168.683594 386.621094 171.691406 383.90625 173.996094 C 378.484375 178.613281 370.777344 178.027344 365.9375 172.65625 C 364.214844 170.742188 363.070312 168.511719 362.355469 166.058594 C 361.261719 162.351562 360.695312 158.535156 360.347656 154.710938 C 359.789062 148.664062 359.382812 142.609375 358.96875 136.550781 C 358.660156 132.027344 358.433594 127.503906 358.164062 122.976562 C 358.140625 122.484375 358.054688 121.992188 357.953125 121.214844 C 357.429688 121.605469 357.085938 121.8125 356.796875 122.082031 C 349.195312 129.132812 342.132812 136.675781 335.640625 144.765625 C 328.386719 153.816406 321.5 163.132812 315.261719 172.914062 C 314.605469 173.933594 314.730469 174.835938 315.628906 175.617188 C 321.757812 180.96875 327.570312 186.632812 332.582031 193.074219 C 341.414062 204.433594 346.957031 217.285156 349.839844 231.324219 C 351.070312 237.328125 351.765625 243.398438 351.871094 249.527344 C 352.0625 260.589844 350.097656 271.316406 346.820312 281.835938 C 343.953125 291.042969 340 299.730469 334.523438 307.6875 C 328.875 315.898438 321.746094 322.492188 312.933594 327.203125 C 308.953125 329.332031 304.777344 330.976562 300.3125 331.765625 C 291.617188 333.296875 283.757812 331.21875 276.675781 326.078125 C 270.871094 321.863281 266.675781 316.304688 263.457031 309.964844 C 260.191406 303.527344 258.328125 296.660156 257.25 289.558594 C 255.933594 280.882812 255.980469 272.175781 256.605469 263.449219 C 258.105469 242.464844 263.582031 222.453125 271.410156 203.011719 C 274.480469 195.390625 277.953125 187.953125 281.679688 180.632812 C 282.503906 179.015625 282.496094 179.023438 280.9375 178.089844 C 271.132812 172.210938 260.519531 168.761719 249.179688 167.492188 C 231.320312 165.5 213.953125 167.824219 196.957031 173.433594 C 181.917969 178.398438 168.210938 185.933594 155.324219 195.042969 C 146.3125 201.414062 138.066406 208.628906 130.820312 216.980469 C 119.507812 230.015625 111.039062 244.714844 104.699219 260.714844 C 99.832031 273 96.273438 285.660156 93.542969 298.574219 C 90.53125 312.820312 88.386719 327.195312 87.625 341.742188 C 87.261719 348.660156 87.34375 355.59375 87.722656 362.515625 C 87.796875 363.839844 87.78125 365.167969 87.71875 366.488281 C 87.585938 369.074219 86.765625 371.441406 85.164062 373.492188 C 84.101562 374.859375 83.335938 376.375 82.6875 377.964844 C 82.488281 378.453125 82.457031 378.898438 82.542969 379.4375 C 82.640625 380.074219 82.613281 380.84375 82.34375 381.410156 C 81.613281 382.9375 80.324219 383.824219 78.621094 384 C 76.886719 384.179688 75.542969 383.449219 74.566406 382.035156 C 73.761719 380.871094 73.472656 379.535156 73.367188 378.15625 C 73.261719 376.792969 73.253906 375.417969 73.132812 374.058594 C 73.058594 373.257812 72.964844 372.414062 72.65625 371.683594 C 70.574219 366.773438 69.722656 361.601562 69.324219 356.335938 C 68.785156 349.296875 68.515625 342.25 68.816406 335.183594 C 69.152344 327.390625 70.203125 319.683594 71.421875 311.996094 C 73.820312 296.8125 77.128906 281.824219 81.714844 267.144531 C 86.941406 250.410156 94.015625 234.515625 103.558594 219.757812 C 116.753906 199.34375 133.726562 182.816406 154.324219 169.925781 C 170.679688 159.6875 188.152344 152.175781 207.007812 148 C 218.199219 145.523438 229.542969 144.371094 241.011719 144.648438 C 251.757812 144.902344 262.308594 146.402344 272.574219 149.699219 C 279.242188 151.835938 285.5625 154.734375 291.617188 158.234375 C 291.800781 158.339844 291.988281 158.453125 292.171875 158.554688 C 293.597656 159.378906 293.578125 159.371094 294.453125 158.03125 C 297.070312 154.019531 299.617188 149.953125 302.351562 146.027344 C 309.808594 135.316406 317.667969 124.910156 326.460938 115.238281 C 328.269531 113.246094 330.203125 111.359375 332.070312 109.425781 C 332.386719 109.101562 332.675781 108.753906 333.128906 108.246094 Z M 302.816406 194.464844 C 302.523438 194.957031 302.253906 195.378906 302.023438 195.816406 C 298.265625 202.933594 294.953125 210.253906 291.953125 217.722656 C 285.738281 233.164062 281.28125 249.035156 279.90625 265.691406 C 279.269531 273.394531 279.222656 281.066406 280.523438 288.710938 C 281.347656 293.542969 282.648438 298.226562 285.09375 302.527344 C 286.246094 304.550781 287.632812 306.378906 289.402344 307.90625 C 292.289062 310.390625 295.511719 311.15625 299.195312 309.957031 C 302.113281 309.011719 304.792969 307.625 307.25 305.800781 C 311.523438 302.632812 315.042969 298.757812 317.957031 294.324219 C 322.105469 288.011719 325.027344 281.160156 327.027344 273.886719 C 328.867188 267.171875 330 260.359375 329.886719 253.375 C 329.761719 245.332031 328.472656 237.453125 326.277344 229.726562 C 324.183594 222.355469 321.152344 215.402344 316.675781 209.128906 C 312.925781 203.882812 308.421875 199.324219 303.667969 195.003906 C 303.457031 194.8125 303.1875 194.695312 302.816406 194.46875 Z M 302.816406 194.464844 " fill-opacity="1" fill-rule="nonzero"/></g><path fill="#ffffff" d="M 325.199219 94.503906 C 324.605469 94.296875 324.230469 94.140625 323.84375 94.042969 C 314.023438 91.484375 304.199219 88.9375 294.378906 86.386719 C 291.742188 85.703125 289.140625 84.933594 286.785156 83.507812 C 286.132812 83.113281 285.476562 82.703125 284.890625 82.222656 C 282.484375 80.269531 282.003906 77.503906 283.589844 74.832031 C 284.496094 73.300781 285.773438 72.136719 287.265625 71.195312 C 289.988281 69.484375 292.992188 68.671875 296.175781 68.421875 C 300.175781 68.105469 304.160156 68.445312 308.125 68.875 C 314.542969 69.566406 320.941406 70.40625 327.355469 71.117188 C 331.40625 71.5625 335.476562 71.832031 339.527344 72.289062 C 344.335938 72.820312 349.136719 73.453125 353.9375 74.050781 C 358.179688 74.582031 361.875 76.457031 365.371094 78.765625 C 367.128906 79.921875 368.320312 81.585938 369.054688 83.53125 C 369.574219 84.921875 370.015625 86.347656 370.339844 87.792969 C 371.832031 94.503906 373.324219 101.21875 374.722656 107.945312 C 377.078125 119.203125 379.125 130.519531 380.769531 141.910156 C 381.207031 144.949219 381.28125 148 380.625 151.03125 C 379.878906 154.445312 378.359375 157.433594 375.671875 159.726562 C 370.292969 164.316406 362.644531 163.738281 357.828125 158.410156 C 356.121094 156.519531 354.980469 154.300781 354.265625 151.867188 C 353.179688 148.183594 352.613281 144.402344 352.257812 140.601562 C 351.699219 134.605469 351.292969 128.59375 350.871094 122.582031 C 350.554688 118.097656 350.332031 113.601562 350.0625 109.113281 C 350.03125 108.621094 349.949219 108.136719 349.851562 107.367188 C 349.332031 107.753906 348.992188 107.957031 348.703125 108.226562 C 341.160156 115.230469 334.15625 122.722656 327.714844 130.757812 C 320.523438 139.746094 313.695312 149 307.507812 158.714844 C 306.859375 159.730469 306.980469 160.625 307.875 161.398438 C 313.972656 166.703125 319.746094 172.320312 324.730469 178.714844 C 333.511719 189.980469 339.027344 202.722656 341.894531 216.660156 C 343.125 222.617188 343.820312 228.640625 343.933594 234.722656 C 344.132812 245.707031 342.191406 256.347656 338.949219 266.796875 C 336.113281 275.9375 332.195312 284.566406 326.761719 292.472656 C 321.160156 300.621094 314.082031 307.167969 305.34375 311.859375 C 301.398438 313.976562 297.253906 315.613281 292.816406 316.398438 C 284.179688 317.921875 276.382812 315.871094 269.34375 310.773438 C 263.578125 306.597656 259.402344 301.085938 256.203125 294.792969 C 252.957031 288.40625 251.101562 281.59375 250.023438 274.542969 C 248.707031 265.9375 248.746094 257.292969 249.359375 248.632812 C 250.824219 227.800781 256.25 207.9375 264.003906 188.636719 C 267.042969 181.066406 270.488281 173.683594 274.183594 166.414062 C 275 164.8125 274.992188 164.8125 273.441406 163.890625 C 263.703125 158.070312 253.160156 154.648438 241.902344 153.40625 C 224.164062 151.449219 206.921875 153.761719 190.050781 159.351562 C 175.125 164.296875 161.523438 171.78125 148.734375 180.84375 C 139.789062 187.175781 131.613281 194.34375 124.425781 202.636719 C 113.207031 215.585938 104.808594 230.179688 98.527344 246.070312 C 93.707031 258.269531 90.183594 270.835938 87.488281 283.652344 C 84.507812 297.796875 82.390625 312.0625 81.648438 326.503906 C 81.292969 333.375 81.378906 340.25 81.765625 347.121094 C 81.839844 348.429688 81.824219 349.753906 81.765625 351.066406 C 81.640625 353.632812 80.824219 355.980469 79.242188 358.019531 C 78.1875 359.375 77.425781 360.878906 76.78125 362.457031 C 76.582031 362.9375 76.558594 363.386719 76.644531 363.925781 C 76.742188 364.554688 76.714844 365.316406 76.445312 365.882812 C 75.722656 367.398438 74.445312 368.285156 72.757812 368.457031 C 71.03125 368.632812 69.699219 367.910156 68.730469 366.507812 C 67.929688 365.359375 67.640625 364.03125 67.535156 362.660156 C 67.429688 361.308594 67.421875 359.945312 67.296875 358.597656 C 67.226562 357.800781 67.132812 356.964844 66.824219 356.242188 C 64.746094 351.371094 63.902344 346.242188 63.496094 341.003906 C 62.957031 334.019531 62.679688 327.023438 62.976562 320.011719 C 63.300781 312.28125 64.34375 304.632812 65.542969 296.996094 C 67.914062 281.921875 71.183594 267.046875 75.722656 252.472656 C 80.898438 235.855469 87.90625 220.070312 97.371094 205.417969 C 110.453125 185.152344 127.289062 168.730469 147.726562 155.917969 C 163.957031 145.738281 181.300781 138.273438 200.015625 134.105469 C 211.125 131.632812 222.390625 130.480469 233.777344 130.746094 C 244.445312 130.988281 254.929688 132.46875 265.121094 135.730469 C 271.746094 137.847656 278.023438 140.722656 284.042969 144.1875 C 284.226562 144.292969 284.410156 144.402344 284.59375 144.507812 C 286.007812 145.324219 285.988281 145.316406 286.855469 143.984375 C 289.453125 139.996094 291.972656 135.964844 294.691406 132.066406 C 302.089844 121.433594 309.875 111.09375 318.59375 101.488281 C 320.390625 99.507812 322.304688 97.632812 324.160156 95.710938 C 324.46875 95.390625 324.757812 95.046875 325.210938 94.542969 Z M 295.191406 180.105469 C 294.898438 180.601562 294.628906 181.015625 294.398438 181.449219 C 290.679688 188.519531 287.394531 195.785156 284.425781 203.195312 C 278.269531 218.527344 273.855469 234.285156 272.507812 250.816406 C 271.882812 258.457031 271.84375 266.082031 273.140625 273.664062 C 273.960938 278.464844 275.257812 283.105469 277.691406 287.367188 C 278.832031 289.375 280.214844 291.1875 281.976562 292.703125 C 284.851562 295.167969 288.046875 295.917969 291.703125 294.734375 C 294.605469 293.792969 297.253906 292.414062 299.699219 290.597656 C 303.941406 287.445312 307.429688 283.601562 310.320312 279.195312 C 314.4375 272.925781 317.332031 266.121094 319.304688 258.898438 C 321.125 252.238281 322.246094 245.46875 322.125 238.539062 C 321.996094 230.554688 320.707031 222.734375 318.523438 215.074219 C 316.4375 207.753906 313.425781 200.863281 308.96875 194.640625 C 305.238281 189.433594 300.765625 184.914062 296.039062 180.632812 C 295.828125 180.441406 295.558594 180.324219 295.195312 180.101562 Z M 295.191406 180.105469 " fill-opacity="1" fill-rule="nonzero"/><g clip-path="url(#b1d7bca465)"><path fill="#47667b" d="M 72.25 370.730469 C 70.078125 370.730469 68.171875 369.699219 66.835938 367.777344 C 65.621094 366.023438 65.34375 364.101562 65.238281 362.804688 C 65.1875 362.167969 65.160156 361.53125 65.132812 360.890625 C 65.101562 360.15625 65.066406 359.457031 65.007812 358.773438 C 64.949219 358.125 64.878906 357.503906 64.707031 357.105469 C 62.792969 352.605469 61.714844 347.6875 61.207031 341.148438 C 60.582031 333.042969 60.414062 326.289062 60.683594 319.886719 C 61.023438 311.753906 62.128906 303.894531 63.273438 296.613281 C 65.824219 280.410156 69.179688 265.738281 73.527344 251.765625 C 79.054688 234 86.222656 218.421875 95.4375 204.144531 C 108.519531 183.875 125.695312 166.988281 146.503906 153.945312 C 163.417969 143.339844 181.253906 135.902344 199.507812 131.84375 C 210.867188 129.316406 222.414062 128.160156 233.824219 128.429688 C 245.457031 128.691406 255.921875 130.363281 265.8125 133.519531 C 272.289062 135.589844 278.808594 138.503906 285.179688 142.175781 L 285.253906 142.21875 C 285.890625 141.242188 286.503906 140.292969 287.113281 139.339844 C 288.941406 136.5 290.835938 133.566406 292.808594 130.726562 C 301.484375 118.257812 309.136719 108.464844 316.898438 99.914062 C 318.128906 98.566406 319.410156 97.257812 320.652344 95.988281 C 320.765625 95.875 320.871094 95.765625 320.980469 95.660156 C 311.925781 93.304688 302.871094 90.949219 293.816406 88.601562 C 291.257812 87.9375 288.296875 87.089844 285.609375 85.464844 C 284.902344 85.039062 284.160156 84.578125 283.457031 84.007812 C 280.195312 81.363281 279.476562 77.304688 281.628906 73.675781 C 282.660156 71.933594 284.109375 70.492188 286.0625 69.269531 C 288.921875 67.472656 292.175781 66.453125 296.011719 66.152344 C 300.34375 65.808594 304.671875 66.210938 308.382812 66.613281 C 311.808594 66.980469 315.273438 67.402344 318.628906 67.800781 C 321.621094 68.164062 324.617188 68.527344 327.617188 68.855469 C 329.617188 69.078125 331.667969 69.253906 333.65625 69.433594 C 335.660156 69.609375 337.738281 69.792969 339.789062 70.023438 C 343.488281 70.433594 347.234375 70.90625 350.859375 71.367188 L 354.230469 71.792969 C 359.386719 72.4375 363.578125 74.84375 366.648438 76.863281 C 368.726562 78.230469 370.257812 80.207031 371.210938 82.730469 C 371.792969 84.261719 372.25 85.800781 372.585938 87.300781 C 374.027344 93.757812 375.554688 100.632812 376.980469 107.484375 C 379.472656 119.40625 381.457031 130.5625 383.050781 141.589844 C 383.582031 145.277344 383.53125 148.527344 382.878906 151.519531 C 381.976562 155.65625 380.0625 159.003906 377.175781 161.464844 C 370.851562 166.855469 361.816406 166.203125 356.160156 159.945312 C 354.316406 157.90625 352.949219 155.40625 352.09375 152.519531 C 351.101562 149.152344 350.4375 145.4375 350.003906 140.820312 C 349.476562 135.175781 349.078125 129.4375 348.6875 123.886719 L 348.609375 122.742188 C 348.40625 119.816406 348.234375 116.835938 348.070312 113.960938 C 348.039062 113.332031 347.996094 112.707031 347.964844 112.074219 C 341.308594 118.441406 335.121094 125.1875 329.523438 132.179688 C 321.710938 141.929688 315.183594 150.96875 309.550781 159.792969 C 316.734375 166.058594 322.132812 171.625 326.558594 177.300781 C 335.207031 188.394531 341.132812 201.480469 344.164062 216.183594 C 345.441406 222.367188 346.136719 228.589844 346.25 234.671875 C 346.433594 245.109375 344.777344 255.835938 341.164062 267.460938 C 338.074219 277.429688 333.984375 286.027344 328.675781 293.746094 C 322.757812 302.363281 315.28125 309.121094 306.453125 313.851562 C 301.878906 316.304688 297.5625 317.863281 293.25 318.625 C 284.238281 320.21875 275.757812 318.191406 268.035156 312.601562 C 262.394531 308.519531 257.867188 303.019531 254.199219 295.804688 C 251.113281 289.75 249.023438 282.894531 247.792969 274.867188 C 246.601562 267.082031 246.386719 258.683594 247.109375 248.449219 C 248.484375 228.988281 253.324219 209.140625 261.914062 187.761719 C 264.726562 180.757812 268.035156 173.53125 272.019531 165.660156 C 262.828125 160.21875 252.628906 156.859375 241.675781 155.648438 C 224.90625 153.796875 208.261719 155.707031 190.796875 161.488281 C 177.144531 166.015625 163.820312 172.9375 150.074219 182.671875 C 140.78125 189.253906 132.964844 196.257812 126.167969 204.097656 C 115.535156 216.375 107.195312 230.363281 100.667969 246.871094 C 96.207031 258.148438 92.628906 270.324219 89.734375 284.085938 C 86.527344 299.351562 84.632812 313.253906 83.941406 326.582031 C 83.613281 333 83.652344 339.671875 84.0625 346.957031 C 84.132812 348.238281 84.132812 349.613281 84.0625 351.140625 C 83.910156 354.242188 82.898438 357.019531 81.054688 359.378906 C 80.257812 360.40625 79.574219 361.640625 78.910156 363.28125 C 78.890625 363.324219 78.886719 363.34375 78.910156 363.515625 C 79.023438 364.214844 79.121094 365.566406 78.523438 366.824219 C 77.457031 369.058594 75.5 370.429688 73.007812 370.691406 C 72.761719 370.71875 72.511719 370.730469 72.277344 370.730469 Z M 230.65625 132.953125 C 220.613281 132.953125 210.484375 134.078125 200.503906 136.296875 C 182.757812 140.242188 165.40625 147.480469 148.929688 157.8125 C 128.695312 170.5 111.992188 186.921875 99.277344 206.617188 C 90.296875 220.539062 83.296875 235.75 77.890625 253.113281 C 73.609375 266.871094 70.304688 281.332031 67.785156 297.3125 C 66.660156 304.460938 65.574219 312.160156 65.246094 320.074219 C 64.984375 326.28125 65.148438 332.863281 65.757812 340.789062 C 66.226562 346.804688 67.199219 351.285156 68.910156 355.300781 C 69.335938 356.308594 69.460938 357.355469 69.554688 358.335938 C 69.625 359.128906 69.664062 359.917969 69.699219 360.675781 C 69.722656 361.261719 69.75 361.851562 69.796875 362.4375 C 69.894531 363.667969 70.136719 364.503906 70.59375 365.160156 C 71.261719 366.121094 71.90625 366.199219 72.507812 366.140625 C 73.40625 366.046875 73.992188 365.640625 74.367188 364.859375 C 74.386719 364.804688 74.417969 364.554688 74.367188 364.238281 C 74.210938 363.261719 74.300781 362.410156 74.648438 361.554688 C 75.480469 359.523438 76.359375 357.941406 77.417969 356.570312 C 78.667969 354.960938 79.359375 353.058594 79.464844 350.910156 C 79.53125 349.542969 79.535156 348.332031 79.46875 347.207031 C 79.050781 339.75 79.011719 332.929688 79.351562 326.339844 C 80.050781 312.765625 81.976562 298.632812 85.238281 283.132812 C 88.183594 269.117188 91.835938 256.703125 96.390625 245.179688 C 103.105469 228.1875 111.707031 213.765625 122.691406 201.097656 C 129.726562 192.976562 137.808594 185.730469 147.40625 178.9375 C 161.523438 168.941406 175.234375 161.8125 189.328125 157.144531 C 207.183594 151.230469 224.953125 149.199219 242.152344 151.097656 C 253.882812 152.394531 264.804688 156.03125 274.617188 161.898438 C 277.191406 163.4375 277.570312 164.769531 276.222656 167.421875 C 272.230469 175.285156 268.921875 182.496094 266.128906 189.460938 C 257.71875 210.386719 252.980469 229.785156 251.640625 248.765625 C 250.945312 258.648438 251.148438 266.726562 252.285156 274.167969 C 253.4375 281.710938 255.390625 288.113281 258.242188 293.726562 C 261.578125 300.285156 265.648438 305.242188 270.6875 308.894531 C 277.453125 313.800781 284.5625 315.503906 292.421875 314.113281 C 296.25 313.4375 300.121094 312.03125 304.265625 309.8125 C 312.4375 305.433594 319.378906 299.152344 324.875 291.148438 C 329.917969 283.808594 333.804688 275.617188 336.765625 266.09375 C 340.226562 254.941406 341.824219 244.679688 341.644531 234.738281 C 341.539062 228.929688 340.867188 223 339.652344 217.09375 C 336.765625 203.078125 331.136719 190.628906 322.921875 180.09375 C 318.648438 174.617188 313.394531 169.210938 306.371094 163.101562 C 304.179688 161.195312 304.007812 159.929688 305.574219 157.472656 C 311.316406 148.460938 317.96875 139.253906 325.925781 129.316406 C 332.308594 121.347656 339.441406 113.6875 347.144531 106.539062 C 347.4375 106.261719 347.726562 106.058594 348.039062 105.839844 C 348.167969 105.75 348.3125 105.644531 348.484375 105.519531 L 351.640625 103.171875 L 352.113281 107.078125 C 352.148438 107.332031 352.175781 107.550781 352.199219 107.753906 C 352.257812 108.1875 352.304688 108.554688 352.332031 108.964844 C 352.429688 110.542969 352.515625 112.121094 352.609375 113.691406 C 352.773438 116.554688 352.9375 119.511719 353.140625 122.414062 L 353.21875 123.558594 C 353.601562 129.082031 354.003906 134.789062 354.523438 140.378906 C 354.921875 144.695312 355.535156 148.132812 356.441406 151.210938 C 357.105469 153.464844 358.113281 155.320312 359.511719 156.867188 C 363.472656 161.246094 369.777344 161.726562 374.171875 157.972656 C 376.308594 156.148438 377.683594 153.714844 378.375 150.535156 C 378.90625 148.085938 378.945312 145.371094 378.492188 142.226562 C 376.914062 131.296875 374.941406 120.230469 372.476562 108.40625 C 371.046875 101.585938 369.527344 94.726562 368.089844 88.28125 C 367.800781 86.992188 367.398438 85.664062 366.898438 84.328125 C 366.292969 82.722656 365.351562 81.488281 364.097656 80.664062 C 360.152344 78.066406 356.921875 76.726562 353.632812 76.3125 L 350.253906 75.882812 C 346.648438 75.429688 342.921875 74.957031 339.257812 74.550781 C 337.257812 74.324219 335.207031 74.148438 333.222656 73.972656 C 331.214844 73.792969 329.136719 73.609375 327.085938 73.378906 C 324.074219 73.042969 321.0625 72.683594 318.054688 72.320312 C 314.714844 71.917969 311.253906 71.503906 307.863281 71.136719 C 304.355469 70.753906 300.28125 70.378906 296.339844 70.6875 C 293.261719 70.933594 290.691406 71.726562 288.46875 73.121094 C 287.152344 73.953125 286.191406 74.886719 285.542969 75.988281 C 284.527344 77.707031 284.785156 79.207031 286.316406 80.449219 C 286.796875 80.835938 287.371094 81.191406 287.957031 81.546875 C 290.113281 82.855469 292.589844 83.558594 294.941406 84.171875 C 304.757812 86.722656 314.582031 89.269531 324.402344 91.824219 C 324.757812 91.917969 325.078125 92.035156 325.414062 92.15625 C 325.566406 92.207031 325.730469 92.273438 325.925781 92.339844 L 329.183594 93.464844 L 326.472656 96.488281 C 326.210938 96.785156 326 97.027344 325.777344 97.257812 C 325.152344 97.902344 324.519531 98.546875 323.890625 99.191406 C 322.679688 100.429688 321.421875 101.703125 320.257812 102.984375 C 312.628906 111.390625 305.09375 121.03125 296.539062 133.335938 C 294.609375 136.105469 292.742188 139.003906 290.933594 141.8125 C 290.203125 142.945312 289.480469 144.070312 288.746094 145.199219 C 287.207031 147.5625 285.871094 147.871094 283.425781 146.457031 L 282.871094 146.132812 C 276.78125 142.621094 270.566406 139.847656 264.398438 137.875 C 254.933594 134.847656 244.894531 133.257812 233.699219 133 C 232.679688 132.972656 231.660156 132.96875 230.640625 132.96875 Z M 288.390625 297.574219 C 285.5625 297.574219 282.917969 296.527344 280.484375 294.4375 C 278.636719 292.851562 277.078125 290.914062 275.703125 288.5 C 273.414062 284.480469 271.890625 279.890625 270.890625 274.050781 C 269.707031 267.113281 269.496094 259.675781 270.230469 250.632812 C 271.488281 235.257812 275.433594 219.460938 282.304688 202.347656 C 285.515625 194.359375 288.808594 187.175781 292.382812 180.390625 C 292.558594 180.054688 292.75 179.738281 292.960938 179.390625 L 294.414062 176.929688 L 296.398438 178.167969 C 296.492188 178.226562 296.582031 178.273438 296.664062 178.320312 C 296.917969 178.464844 297.246094 178.648438 297.570312 178.941406 C 303.402344 184.230469 307.492188 188.664062 310.820312 193.3125 C 315.140625 199.351562 318.382812 206.261719 320.710938 214.449219 C 323.027344 222.585938 324.269531 230.671875 324.402344 238.503906 C 324.511719 245.09375 323.566406 251.960938 321.5 259.511719 C 319.351562 267.375 316.3125 274.230469 312.222656 280.457031 C 309.078125 285.238281 305.324219 289.269531 301.050781 292.4375 C 298.398438 294.40625 295.492188 295.910156 292.402344 296.910156 C 291.027344 297.359375 289.691406 297.574219 288.390625 297.574219 Z M 295.867188 183.585938 C 292.578125 189.917969 289.527344 196.628906 286.546875 204.050781 C 279.851562 220.730469 276.007812 236.09375 274.789062 251.007812 C 274.085938 259.65625 274.277344 266.730469 275.394531 273.28125 C 276.300781 278.582031 277.664062 282.707031 279.675781 286.242188 C 280.789062 288.191406 282.023438 289.734375 283.464844 290.972656 C 285.792969 292.972656 288.1875 293.472656 290.992188 292.5625 C 293.652344 291.703125 296.050781 290.460938 298.332031 288.769531 C 302.226562 285.882812 305.519531 282.34375 308.40625 277.949219 C 312.230469 272.128906 315.078125 265.707031 317.09375 258.308594 C 319.042969 251.183594 319.941406 244.734375 319.835938 238.585938 C 319.710938 231.152344 318.527344 223.453125 316.320312 215.707031 C 314.136719 208.03125 311.117188 201.578125 307.105469 195.976562 C 304.230469 191.964844 300.734375 188.097656 295.867188 183.585938 Z M 295.867188 183.585938 " fill-opacity="1" fill-rule="nonzero"/></g></svg>