<svg xmlns="http://www.w3.org/2000/svg" xmlns:xlink="http://www.w3.org/1999/xlink" width="1500" zoomAndPan="magnify" viewBox="0 0 1125 149.999998" height="200" preserveAspectRatio="xMidYMid meet" version="1.0"><defs><g/><clipPath id="6dabb3121f"><rect x="0" width="902" y="0" height="150"/></clipPath></defs><g transform="matrix(1, 0, 0, 1, 114, -0.000000000000007527)"><g clip-path="url(#6dabb3121f)"><g fill="#282a3e" fill-opacity="1"><g transform="translate(1.038029, 122.805418)"><g><path d="M 119.203125 -81.84375 C 116.753906 -81.351562 114.773438 -80.597656 113.265625 -79.578125 C 111.753906 -78.554688 110.46875 -76.960938 109.40625 -74.796875 C 108.34375 -72.628906 107.195312 -69.503906 105.96875 -65.421875 L 84.65625 1.84375 L 75.71875 1.84375 L 60.40625 -48.03125 L 44.234375 1.84375 L 35.046875 1.84375 L 10.046875 -74.734375 C 9.066406 -77.671875 7.960938 -79.585938 6.734375 -80.484375 C 5.515625 -81.390625 3.515625 -81.84375 0.734375 -81.84375 L 0.734375 -88.453125 L 38.71875 -88.453125 L 38.71875 -81.84375 C 35.851562 -81.757812 33.929688 -81.515625 32.953125 -81.109375 C 31.972656 -80.703125 31.484375 -79.925781 31.484375 -78.78125 C 31.484375 -78.375 31.566406 -77.84375 31.734375 -77.1875 C 31.898438 -76.53125 32.144531 -75.671875 32.46875 -74.609375 L 46.671875 -30.75 L 56.484375 -61.5 L 52.0625 -75.34375 C 51.25 -77.957031 50.332031 -79.671875 49.3125 -80.484375 C 48.289062 -81.304688 46.597656 -81.757812 44.234375 -81.84375 L 44.234375 -88.453125 L 80.5 -88.453125 L 80.5 -81.84375 C 77.632812 -81.675781 75.710938 -81.367188 74.734375 -80.921875 C 73.753906 -80.472656 73.265625 -79.675781 73.265625 -78.53125 C 73.265625 -78.207031 73.304688 -77.800781 73.390625 -77.3125 C 73.472656 -76.820312 73.675781 -76.125 74 -75.21875 L 87.109375 -31.609375 L 97.765625 -66.53125 C 98.421875 -68.726562 98.847656 -70.316406 99.046875 -71.296875 C 99.253906 -72.285156 99.359375 -73.1875 99.359375 -74 C 99.359375 -76.53125 98.519531 -78.445312 96.84375 -79.75 C 95.175781 -81.0625 92.335938 -81.757812 88.328125 -81.84375 L 88.328125 -88.453125 L 119.203125 -88.453125 Z M 119.203125 -81.84375 "/></g></g></g><g fill="#282a3e" fill-opacity="1"><g transform="translate(105.298878, 122.805418)"><g><path d="M 66.15625 -17.640625 C 60.84375 -4.648438 51.125 1.84375 37 1.84375 C 30.21875 1.84375 24.351562 0.535156 19.40625 -2.078125 C 14.46875 -4.691406 10.648438 -8.265625 7.953125 -12.796875 C 5.265625 -17.335938 3.921875 -22.546875 3.921875 -28.421875 C 3.921875 -34.304688 5.347656 -39.613281 8.203125 -44.34375 C 11.066406 -49.082031 14.988281 -52.835938 19.96875 -55.609375 C 24.945312 -58.390625 30.582031 -59.78125 36.875 -59.78125 C 42.84375 -59.78125 48.007812 -58.554688 52.375 -56.109375 C 56.75 -53.660156 60.140625 -50.207031 62.546875 -45.75 C 64.953125 -41.300781 66.15625 -36.015625 66.15625 -29.890625 L 66.15625 -27.9375 L 25.109375 -27.9375 C 25.109375 -20.09375 26.703125 -14.554688 29.890625 -11.328125 C 33.078125 -8.109375 37.039062 -6.5 41.78125 -6.5 C 45.78125 -6.5 49.226562 -7.578125 52.125 -9.734375 C 55.03125 -11.898438 57.707031 -15.351562 60.15625 -20.09375 Z M 46.921875 -38.59375 C 46.921875 -48.476562 43.695312 -53.421875 37.25 -53.421875 C 33.570312 -53.421875 30.648438 -51.742188 28.484375 -48.390625 C 26.316406 -45.046875 25.234375 -40.472656 25.234375 -34.671875 L 43.609375 -34.671875 C 44.835938 -34.671875 45.695312 -34.957031 46.1875 -35.53125 C 46.675781 -36.101562 46.921875 -37.125 46.921875 -38.59375 Z M 46.921875 -38.59375 "/></g></g></g><g fill="#282a3e" fill-opacity="1"><g transform="translate(168.271938, 122.805418)"><g><path d="M 73.140625 -8.328125 C 73.140625 -6.617188 72.503906 -4.988281 71.234375 -3.4375 C 69.972656 -1.882812 68.320312 -0.617188 66.28125 0.359375 C 64.238281 1.347656 62.035156 1.84375 59.671875 1.84375 C 56.566406 1.84375 53.890625 1.085938 51.640625 -0.421875 C 49.390625 -1.941406 47.734375 -4.085938 46.671875 -6.859375 C 43.410156 -3.671875 40.019531 -1.421875 36.5 -0.109375 C 32.988281 1.191406 28.582031 1.84375 23.28125 1.84375 C 17.3125 1.84375 12.671875 0.578125 9.359375 -1.953125 C 6.054688 -4.492188 4.40625 -8.007812 4.40625 -12.5 C 4.40625 -16.414062 5.488281 -19.640625 7.65625 -22.171875 C 9.820312 -24.703125 13.476562 -26.90625 18.625 -28.78125 C 23.769531 -30.664062 30.875 -32.585938 39.9375 -34.546875 C 40.507812 -34.628906 41.160156 -34.75 41.890625 -34.90625 C 42.628906 -35.070312 43.328125 -35.238281 43.984375 -35.40625 L 43.984375 -41.78125 C 43.984375 -46.03125 43.226562 -49.03125 41.71875 -50.78125 C 40.207031 -52.539062 37.613281 -53.421875 33.9375 -53.421875 C 31.488281 -53.421875 29.363281 -53.03125 27.5625 -52.25 C 25.769531 -51.476562 24.875 -50.5625 24.875 -49.5 C 24.875 -49.332031 25.117188 -48.859375 25.609375 -48.078125 C 26.097656 -47.304688 26.566406 -46.429688 27.015625 -45.453125 C 27.460938 -44.472656 27.6875 -43.578125 27.6875 -42.765625 C 27.6875 -40.472656 26.726562 -38.570312 24.8125 -37.0625 C 22.894531 -35.550781 20.503906 -34.796875 17.640625 -34.796875 C 14.867188 -34.796875 12.519531 -35.671875 10.59375 -37.421875 C 8.675781 -39.179688 7.71875 -41.367188 7.71875 -43.984375 C 7.71875 -48.804688 10.269531 -52.644531 15.375 -55.5 C 20.476562 -58.351562 27.238281 -59.78125 35.65625 -59.78125 C 44.550781 -59.78125 51.367188 -58.269531 56.109375 -55.25 C 60.847656 -52.226562 63.21875 -46.796875 63.21875 -38.953125 L 63.21875 -17.390625 C 63.21875 -13.878906 63.441406 -11.53125 63.890625 -10.34375 C 64.335938 -9.164062 65.21875 -8.578125 66.53125 -8.578125 C 67.175781 -8.578125 67.96875 -8.863281 68.90625 -9.4375 C 69.851562 -10.007812 70.648438 -10.296875 71.296875 -10.296875 C 72.523438 -10.296875 73.140625 -9.640625 73.140625 -8.328125 Z M 43.984375 -21.9375 L 43.984375 -28.796875 L 37.484375 -27.328125 C 33.078125 -26.335938 29.875 -24.84375 27.875 -22.84375 C 25.875 -20.84375 24.875 -18.25 24.875 -15.0625 C 24.875 -12.457031 25.585938 -10.378906 27.015625 -8.828125 C 28.441406 -7.273438 30.34375 -6.5 32.71875 -6.5 C 36.144531 -6.5 38.878906 -7.882812 40.921875 -10.65625 C 42.960938 -13.4375 43.984375 -17.195312 43.984375 -21.9375 Z M 43.984375 -21.9375 "/></g></g></g><g fill="#282a3e" fill-opacity="1"><g transform="translate(235.77807, 122.805418)"><g><path d="M 40.546875 0 L 2.328125 0 L 2.328125 -6.25 L 4.046875 -6.25 C 6.742188 -6.25 8.640625 -6.367188 9.734375 -6.609375 C 10.835938 -6.859375 11.507812 -7.390625 11.75 -8.203125 C 12 -9.023438 12.125 -10.253906 12.125 -11.890625 L 12.125 -70.8125 C 12.125 -74.488281 11.976562 -77.125 11.6875 -78.71875 C 11.40625 -80.3125 10.734375 -81.289062 9.671875 -81.65625 C 8.617188 -82.019531 6.820312 -82.203125 4.28125 -82.203125 L 1.953125 -82.203125 L 1.953125 -88.453125 L 31.359375 -90.296875 L 31.359375 -11.890625 C 31.359375 -10.335938 31.476562 -9.253906 31.71875 -8.640625 C 31.96875 -8.023438 32.460938 -7.515625 33.203125 -7.109375 C 33.609375 -6.859375 34.363281 -6.648438 35.46875 -6.484375 C 36.570312 -6.328125 37.695312 -6.25 38.84375 -6.25 L 40.546875 -6.25 Z M 40.546875 0 "/></g></g></g><g fill="#282a3e" fill-opacity="1"><g transform="translate(271.552669, 122.805418)"><g><path d="M 49.625 -19.96875 C 49.625 -16.132812 48.863281 -12.539062 47.34375 -9.1875 C 45.832031 -5.84375 43.546875 -3.164062 40.484375 -1.15625 C 37.421875 0.84375 33.5625 1.84375 28.90625 1.84375 C 21.71875 1.84375 16.78125 -0.40625 14.09375 -4.90625 C 13.4375 -6.039062 12.90625 -7.238281 12.5 -8.5 C 12.09375 -9.769531 11.828125 -11.382812 11.703125 -13.34375 C 11.578125 -15.3125 11.515625 -17.96875 11.515625 -21.3125 L 11.515625 -50.59375 L 2.8125 -50.59375 L 2.8125 -56.96875 C 14.332031 -58.28125 21.070312 -66.691406 23.03125 -82.203125 L 30.75 -82.203125 L 30.75 -57.953125 L 46.671875 -57.953125 L 46.671875 -50.59375 L 30.75 -50.59375 L 30.75 -19.109375 C 30.75 -14.941406 31.054688 -12.144531 31.671875 -10.71875 C 32.285156 -9.289062 33.488281 -8.578125 35.28125 -8.578125 C 37.894531 -8.578125 39.832031 -9.820312 41.09375 -12.3125 C 42.363281 -14.800781 43 -18.289062 43 -22.78125 L 49.5 -22.78125 C 49.582031 -22.21875 49.625 -21.6875 49.625 -21.1875 C 49.625 -20.695312 49.625 -20.289062 49.625 -19.96875 Z M 49.625 -19.96875 "/></g></g></g><g fill="#282a3e" fill-opacity="1"><g transform="translate(315.780822, 122.805418)"><g><path d="M 81.59375 0 L 44.234375 0 L 44.234375 -6.25 C 47.828125 -6.25 50.132812 -6.59375 51.15625 -7.28125 C 52.175781 -7.976562 52.6875 -9.515625 52.6875 -11.890625 L 52.6875 -36.390625 C 52.6875 -44.390625 49.785156 -48.390625 43.984375 -48.390625 C 41.691406 -48.390625 39.566406 -47.734375 37.609375 -46.421875 C 35.648438 -45.117188 34.179688 -43.367188 33.203125 -41.171875 C 32.546875 -39.691406 32.070312 -38.070312 31.78125 -36.3125 C 31.5 -34.5625 31.359375 -32.300781 31.359375 -29.53125 L 31.359375 -12 C 31.359375 -9.46875 31.867188 -7.875 32.890625 -7.21875 C 33.910156 -6.570312 36.175781 -6.25 39.6875 -6.25 L 39.6875 0 L 2.328125 0 L 2.328125 -6.25 L 4.046875 -6.25 C 6.742188 -6.25 8.640625 -6.367188 9.734375 -6.609375 C 10.835938 -6.859375 11.507812 -7.390625 11.75 -8.203125 C 12 -9.023438 12.125 -10.253906 12.125 -11.890625 L 12.125 -70.328125 C 12.125 -74.242188 11.976562 -77.019531 11.6875 -78.65625 C 11.40625 -80.289062 10.734375 -81.289062 9.671875 -81.65625 C 8.617188 -82.019531 6.820312 -82.203125 4.28125 -82.203125 L 1.953125 -82.203125 L 1.953125 -88.453125 L 31.359375 -90.296875 L 31.359375 -48.515625 C 33.972656 -52.429688 36.929688 -55.285156 40.234375 -57.078125 C 43.546875 -58.878906 47.53125 -59.78125 52.1875 -59.78125 C 58.800781 -59.78125 63.828125 -57.820312 67.265625 -53.90625 C 68.898438 -52.113281 70.082031 -49.988281 70.8125 -47.53125 C 71.550781 -45.082031 71.921875 -41.941406 71.921875 -38.109375 L 71.921875 -12 C 71.921875 -10.375 72.039062 -9.128906 72.28125 -8.265625 C 72.53125 -7.410156 73.203125 -6.859375 74.296875 -6.609375 C 75.398438 -6.367188 77.257812 -6.25 79.875 -6.25 L 81.59375 -6.25 Z M 81.59375 0 "/></g></g></g><g fill="#282a3e" fill-opacity="1"><g transform="translate(392.353143, 122.805418)"><g><path d="M 88.578125 -30.625 C 86.285156 -19.6875 81.953125 -11.539062 75.578125 -6.1875 C 69.210938 -0.832031 60.597656 1.84375 49.734375 1.84375 C 42.546875 1.84375 36.273438 0.757812 30.921875 -1.40625 C 25.578125 -3.570312 20.785156 -6.984375 16.546875 -11.640625 C 12.617188 -15.960938 9.695312 -20.695312 7.78125 -25.84375 C 5.863281 -30.988281 4.90625 -36.75 4.90625 -43.125 C 4.90625 -49.988281 6.046875 -56.296875 8.328125 -62.046875 C 10.617188 -67.804688 13.828125 -72.789062 17.953125 -77 C 22.078125 -81.207031 26.976562 -84.472656 32.65625 -86.796875 C 38.332031 -89.128906 44.519531 -90.296875 51.21875 -90.296875 C 55.539062 -90.296875 59.351562 -89.820312 62.65625 -88.875 C 65.96875 -87.9375 69.625 -86.242188 73.625 -83.796875 L 80.25 -89.796875 L 85.515625 -89.796875 L 86.734375 -54.765625 L 80.25 -54.03125 C 77.46875 -64.238281 73.789062 -71.769531 69.21875 -76.625 C 64.644531 -81.488281 58.96875 -83.921875 52.1875 -83.921875 C 44.675781 -83.921875 38.976562 -80.65625 35.09375 -74.125 C 31.21875 -67.59375 29.28125 -57.992188 29.28125 -45.328125 C 29.28125 -31.847656 31.28125 -21.882812 35.28125 -15.4375 C 39.28125 -8.988281 45.445312 -5.765625 53.78125 -5.765625 C 60.8125 -5.765625 66.691406 -8.085938 71.421875 -12.734375 C 76.160156 -17.390625 79.347656 -23.96875 80.984375 -32.46875 Z M 88.578125 -30.625 "/></g></g></g><g fill="#282a3e" fill-opacity="1"><g transform="translate(480.31941, 122.805418)"><g><path d="M 70.9375 -28.671875 C 70.9375 -22.867188 69.460938 -17.660156 66.515625 -13.046875 C 63.578125 -8.429688 59.578125 -4.796875 54.515625 -2.140625 C 49.453125 0.515625 43.695312 1.84375 37.25 1.84375 C 30.789062 1.84375 25.050781 0.515625 20.03125 -2.140625 C 15.007812 -4.796875 11.046875 -8.453125 8.140625 -13.109375 C 5.242188 -17.765625 3.796875 -23.03125 3.796875 -28.90625 C 3.796875 -34.789062 5.265625 -40.0625 8.203125 -44.71875 C 11.148438 -49.375 15.195312 -53.046875 20.34375 -55.734375 C 25.488281 -58.429688 31.285156 -59.78125 37.734375 -59.78125 C 43.941406 -59.78125 49.554688 -58.390625 54.578125 -55.609375 C 59.597656 -52.835938 63.578125 -49.101562 66.515625 -44.40625 C 69.460938 -39.71875 70.9375 -34.472656 70.9375 -28.671875 Z M 49.734375 -28.796875 C 49.734375 -33.453125 49.363281 -37.632812 48.625 -41.34375 C 47.894531 -45.0625 46.648438 -48.003906 44.890625 -50.171875 C 43.140625 -52.335938 40.671875 -53.421875 37.484375 -53.421875 C 29.160156 -53.421875 25 -45.25 25 -28.90625 C 25 -12.65625 29.125 -4.53125 37.375 -4.53125 C 41.289062 -4.53125 44.328125 -6.632812 46.484375 -10.84375 C 48.648438 -15.050781 49.734375 -21.035156 49.734375 -28.796875 Z M 49.734375 -28.796875 "/></g></g></g><g fill="#282a3e" fill-opacity="1"><g transform="translate(547.825565, 122.805418)"><g><path d="M 115.40625 0 L 79.390625 0 L 79.390625 -6.25 C 82.492188 -6.332031 84.453125 -6.695312 85.265625 -7.34375 C 86.085938 -8 86.5 -9.515625 86.5 -11.890625 L 86.5 -37.484375 C 86.5 -41.328125 85.96875 -44.101562 84.90625 -45.8125 C 83.84375 -47.53125 82.125 -48.390625 79.75 -48.390625 C 76.320312 -48.390625 73.609375 -47.082031 71.609375 -44.46875 C 69.609375 -41.851562 68.609375 -38.382812 68.609375 -34.0625 L 68.609375 -11.890625 C 68.609375 -9.515625 69.015625 -8 69.828125 -7.34375 C 70.648438 -6.695312 72.613281 -6.332031 75.71875 -6.25 L 75.71875 0 L 42.390625 0 L 42.390625 -6.25 C 45.492188 -6.332031 47.429688 -6.695312 48.203125 -7.34375 C 48.984375 -8 49.375 -9.550781 49.375 -12 L 49.375 -37 C 49.375 -41.082031 48.84375 -44 47.78125 -45.75 C 46.71875 -47.507812 45.003906 -48.390625 42.640625 -48.390625 C 39.285156 -48.390625 36.585938 -47.082031 34.546875 -44.46875 C 32.503906 -41.851562 31.484375 -38.382812 31.484375 -34.0625 L 31.484375 -11.890625 C 31.484375 -9.515625 31.890625 -8 32.703125 -7.34375 C 33.523438 -6.695312 35.488281 -6.332031 38.59375 -6.25 L 38.59375 0 L 2.453125 0 L 2.453125 -6.25 L 4.28125 -6.25 C 6.894531 -6.25 8.753906 -6.367188 9.859375 -6.609375 C 10.960938 -6.859375 11.632812 -7.410156 11.875 -8.265625 C 12.125 -9.128906 12.25 -10.375 12.25 -12 L 12.25 -39.328125 C 12.25 -43.003906 12.101562 -45.640625 11.8125 -47.234375 C 11.53125 -48.828125 10.859375 -49.828125 9.796875 -50.234375 C 8.734375 -50.640625 6.9375 -50.84375 4.40625 -50.84375 L 2.453125 -50.84375 L 2.453125 -57.09375 L 30.390625 -57.953125 L 30.390625 -48.265625 C 35.285156 -55.941406 41.816406 -59.78125 49.984375 -59.78125 C 54.066406 -59.78125 57.640625 -58.800781 60.703125 -56.84375 C 63.765625 -54.882812 65.953125 -52.191406 67.265625 -48.765625 C 70.117188 -52.679688 73.054688 -55.492188 76.078125 -57.203125 C 79.097656 -58.921875 82.570312 -59.78125 86.5 -59.78125 C 90.175781 -59.78125 93.460938 -59.003906 96.359375 -57.453125 C 99.253906 -55.898438 101.539062 -53.773438 103.21875 -51.078125 C 104.894531 -48.390625 105.734375 -45.367188 105.734375 -42.015625 L 105.734375 -11.890625 C 105.734375 -10.335938 105.851562 -9.148438 106.09375 -8.328125 C 106.34375 -7.515625 107.019531 -6.960938 108.125 -6.671875 C 109.226562 -6.390625 111.082031 -6.25 113.6875 -6.25 L 115.40625 -6.25 Z M 115.40625 0 "/></g></g></g><g fill="#282a3e" fill-opacity="1"><g transform="translate(655.394334, 122.805418)"><g><path d="M 77.4375 -30.5 C 77.4375 -24.375 76.164062 -18.878906 73.625 -14.015625 C 71.09375 -9.160156 67.640625 -5.300781 63.265625 -2.4375 C 58.898438 0.414062 53.984375 1.84375 48.515625 1.84375 C 41.734375 1.84375 35.9375 -0.8125 31.125 -6.125 L 31.125 12.859375 C 31.125 14.492188 31.304688 15.71875 31.671875 16.53125 C 32.035156 17.351562 32.847656 17.90625 34.109375 18.1875 C 35.378906 18.476562 37.320312 18.625 39.9375 18.625 L 41.78125 18.625 L 41.78125 24.75 L 2.203125 24.75 L 2.203125 18.625 L 3.921875 18.625 C 6.535156 18.625 8.394531 18.476562 9.5 18.1875 C 10.601562 17.90625 11.273438 17.351562 11.515625 16.53125 C 11.765625 15.71875 11.890625 14.492188 11.890625 12.859375 L 11.890625 -38.953125 C 11.890625 -42.878906 11.742188 -45.65625 11.453125 -47.28125 C 11.171875 -48.914062 10.5 -49.914062 9.4375 -50.28125 C 8.375 -50.65625 6.578125 -50.84375 4.046875 -50.84375 L 2.203125 -50.84375 L 2.203125 -57.09375 L 31.125 -57.953125 L 31.125 -50.109375 C 33.894531 -53.617188 36.726562 -56.109375 39.625 -57.578125 C 42.53125 -59.046875 46.066406 -59.78125 50.234375 -59.78125 C 55.460938 -59.78125 60.117188 -58.515625 64.203125 -55.984375 C 68.285156 -53.453125 71.507812 -49.976562 73.875 -45.5625 C 76.25 -41.15625 77.4375 -36.132812 77.4375 -30.5 Z M 56.234375 -28.421875 C 56.234375 -35.691406 55.253906 -41.203125 53.296875 -44.953125 C 51.335938 -48.710938 48.519531 -50.59375 44.84375 -50.59375 C 40.351562 -50.59375 36.921875 -48.648438 34.546875 -44.765625 C 32.179688 -40.890625 31 -35.320312 31 -28.0625 C 31 -21.113281 32.117188 -15.78125 34.359375 -12.0625 C 36.609375 -8.351562 39.773438 -6.5 43.859375 -6.5 C 47.703125 -6.5 50.722656 -8.4375 52.921875 -12.3125 C 55.128906 -16.1875 56.234375 -21.554688 56.234375 -28.421875 Z M 56.234375 -28.421875 "/></g></g></g><g fill="#282a3e" fill-opacity="1"><g transform="translate(729.761351, 122.805418)"><g><path d="M 40.546875 0 L 2.328125 0 L 2.328125 -6.25 L 4.046875 -6.25 C 6.742188 -6.25 8.640625 -6.367188 9.734375 -6.609375 C 10.835938 -6.859375 11.507812 -7.390625 11.75 -8.203125 C 12 -9.023438 12.125 -10.253906 12.125 -11.890625 L 12.125 -70.8125 C 12.125 -74.488281 11.976562 -77.125 11.6875 -78.71875 C 11.40625 -80.3125 10.734375 -81.289062 9.671875 -81.65625 C 8.617188 -82.019531 6.820312 -82.203125 4.28125 -82.203125 L 1.953125 -82.203125 L 1.953125 -88.453125 L 31.359375 -90.296875 L 31.359375 -11.890625 C 31.359375 -10.335938 31.476562 -9.253906 31.71875 -8.640625 C 31.96875 -8.023438 32.460938 -7.515625 33.203125 -7.109375 C 33.609375 -6.859375 34.363281 -6.648438 35.46875 -6.484375 C 36.570312 -6.328125 37.695312 -6.25 38.84375 -6.25 L 40.546875 -6.25 Z M 40.546875 0 "/></g></g></g><g fill="#282a3e" fill-opacity="1"><g transform="translate(765.535925, 122.805418)"><g><path d="M 66.15625 -17.640625 C 60.84375 -4.648438 51.125 1.84375 37 1.84375 C 30.21875 1.84375 24.351562 0.535156 19.40625 -2.078125 C 14.46875 -4.691406 10.648438 -8.265625 7.953125 -12.796875 C 5.265625 -17.335938 3.921875 -22.546875 3.921875 -28.421875 C 3.921875 -34.304688 5.347656 -39.613281 8.203125 -44.34375 C 11.066406 -49.082031 14.988281 -52.835938 19.96875 -55.609375 C 24.945312 -58.390625 30.582031 -59.78125 36.875 -59.78125 C 42.84375 -59.78125 48.007812 -58.554688 52.375 -56.109375 C 56.75 -53.660156 60.140625 -50.207031 62.546875 -45.75 C 64.953125 -41.300781 66.15625 -36.015625 66.15625 -29.890625 L 66.15625 -27.9375 L 25.109375 -27.9375 C 25.109375 -20.09375 26.703125 -14.554688 29.890625 -11.328125 C 33.078125 -8.109375 37.039062 -6.5 41.78125 -6.5 C 45.78125 -6.5 49.226562 -7.578125 52.125 -9.734375 C 55.03125 -11.898438 57.707031 -15.351562 60.15625 -20.09375 Z M 46.921875 -38.59375 C 46.921875 -48.476562 43.695312 -53.421875 37.25 -53.421875 C 33.570312 -53.421875 30.648438 -51.742188 28.484375 -48.390625 C 26.316406 -45.046875 25.234375 -40.472656 25.234375 -34.671875 L 43.609375 -34.671875 C 44.835938 -34.671875 45.695312 -34.957031 46.1875 -35.53125 C 46.675781 -36.101562 46.921875 -37.125 46.921875 -38.59375 Z M 46.921875 -38.59375 "/></g></g></g><g fill="#282a3e" fill-opacity="1"><g transform="translate(826.671213, 122.805418)"><g><path d="M 73.265625 0 L 34.796875 0 L 34.796875 -6.25 L 36.265625 -6.25 C 37.898438 -6.25 39.019531 -6.472656 39.625 -6.921875 C 40.238281 -7.367188 40.546875 -8.082031 40.546875 -9.0625 C 40.546875 -9.882812 40.097656 -10.785156 39.203125 -11.765625 L 31.984375 -20.453125 L 24.625 -13.234375 C 23.476562 -12.085938 22.90625 -10.898438 22.90625 -9.671875 C 22.90625 -8.617188 23.414062 -7.785156 24.4375 -7.171875 C 25.457031 -6.554688 26.867188 -6.25 28.671875 -6.25 L 30.265625 -6.25 L 30.265625 0 L 1.59375 0 L 1.59375 -6.25 C 3.382812 -6.332031 5.097656 -6.78125 6.734375 -7.59375 C 8.367188 -8.414062 10.289062 -9.847656 12.5 -11.890625 L 27.328125 -25.96875 L 9.796875 -46.921875 C 8.242188 -48.796875 6.957031 -50.039062 5.9375 -50.65625 C 4.914062 -51.269531 3.46875 -51.617188 1.59375 -51.703125 L 1.59375 -57.953125 L 37.859375 -57.953125 L 37.859375 -51.703125 L 36.515625 -51.703125 C 33.816406 -51.703125 32.46875 -51.046875 32.46875 -49.734375 C 32.46875 -49.003906 32.914062 -48.148438 33.8125 -47.171875 L 40.796875 -38.71875 L 47.046875 -44.71875 C 48.765625 -46.351562 49.625 -47.742188 49.625 -48.890625 C 49.625 -50.765625 47.988281 -51.703125 44.71875 -51.703125 L 41.90625 -51.703125 L 41.90625 -57.953125 L 72.046875 -57.953125 L 72.046875 -51.703125 C 69.429688 -51.703125 67.082031 -51.234375 65 -50.296875 C 62.914062 -49.359375 60.609375 -47.703125 58.078125 -45.328125 L 45.328125 -33.328125 L 62.234375 -13.234375 C 63.953125 -11.191406 65.34375 -9.679688 66.40625 -8.703125 C 67.46875 -7.722656 68.507812 -7.085938 69.53125 -6.796875 C 70.550781 -6.515625 71.796875 -6.332031 73.265625 -6.25 Z M 73.265625 0 "/></g></g></g></g></g></svg>