<svg xmlns="http://www.w3.org/2000/svg" xmlns:xlink="http://www.w3.org/1999/xlink" width="1500" zoomAndPan="magnify" viewBox="0 0 1125 149.999998" height="200" preserveAspectRatio="xMidYMid meet" version="1.2"><defs/><g id="dac55c61a1"><g style="fill:#282a3e;fill-opacity:1;"><g transform="translate(6.363299, 122.80542)"><path style="stroke:none" d="M 118.234375 0 L 71.421875 0 L 71.421875 -6.609375 L 72.78125 -6.609375 C 76.039062 -6.609375 78.40625 -6.75 79.875 -7.03125 C 81.34375 -7.320312 82.363281 -7.796875 82.9375 -8.453125 C 83.269531 -8.773438 83.472656 -9.160156 83.546875 -9.609375 C 83.628906 -10.066406 83.691406 -10.882812 83.734375 -12.0625 C 83.773438 -13.25 83.796875 -15.109375 83.796875 -17.640625 L 83.796875 -78.78125 L 56.71875 0 L 50.359375 0 L 22.546875 -77.546875 L 22.546875 -26.578125 C 22.546875 -22.984375 22.625 -20.125 22.78125 -18 C 22.945312 -15.882812 23.273438 -14.234375 23.765625 -13.046875 C 24.253906 -11.859375 24.910156 -10.816406 25.734375 -9.921875 C 27.691406 -7.878906 31.117188 -6.773438 36.015625 -6.609375 L 36.015625 0 L 1.109375 0 L 1.109375 -6.609375 C 5.835938 -6.691406 9.1875 -7.796875 11.15625 -9.921875 C 12.050781 -10.816406 12.722656 -11.878906 13.171875 -13.109375 C 13.617188 -14.335938 13.921875 -15.988281 14.078125 -18.0625 C 14.242188 -20.144531 14.328125 -22.984375 14.328125 -26.578125 L 14.328125 -70.8125 C 14.328125 -73.425781 14.304688 -75.304688 14.265625 -76.453125 C 14.234375 -77.597656 14.175781 -78.394531 14.09375 -78.84375 C 14.007812 -79.289062 13.804688 -79.675781 13.484375 -80 C 12.910156 -80.65625 11.882812 -81.125 10.40625 -81.40625 C 8.9375 -81.695312 6.570312 -81.84375 3.3125 -81.84375 L 1.953125 -81.84375 L 1.953125 -88.453125 L 41.40625 -88.453125 L 60.40625 -35.78125 L 78.28125 -88.453125 L 118.234375 -88.453125 L 118.234375 -81.84375 L 116.875 -81.84375 C 113.613281 -81.84375 111.242188 -81.695312 109.765625 -81.40625 C 108.296875 -81.125 107.28125 -80.65625 106.71875 -80 C 106.46875 -79.675781 106.28125 -79.289062 106.15625 -78.84375 C 106.03125 -78.394531 105.945312 -77.578125 105.90625 -76.390625 C 105.875 -75.203125 105.859375 -73.34375 105.859375 -70.8125 L 105.859375 -17.640625 C 105.859375 -15.109375 105.875 -13.25 105.90625 -12.0625 C 105.945312 -10.882812 106.03125 -10.066406 106.15625 -9.609375 C 106.28125 -9.160156 106.46875 -8.773438 106.71875 -8.453125 C 107.28125 -7.796875 108.296875 -7.320312 109.765625 -7.03125 C 111.242188 -6.75 113.613281 -6.609375 116.875 -6.609375 L 118.234375 -6.609375 Z M 118.234375 0 "/></g></g><g style="fill:#282a3e;fill-opacity:1;"><g transform="translate(119.200249, 122.80542)"><path style="stroke:none" d="M 73.140625 -8.328125 C 73.140625 -6.617188 72.503906 -4.988281 71.234375 -3.4375 C 69.972656 -1.882812 68.320312 -0.617188 66.28125 0.359375 C 64.238281 1.347656 62.035156 1.84375 59.671875 1.84375 C 56.566406 1.84375 53.890625 1.085938 51.640625 -0.421875 C 49.390625 -1.941406 47.734375 -4.085938 46.671875 -6.859375 C 43.410156 -3.671875 40.019531 -1.421875 36.5 -0.109375 C 32.988281 1.191406 28.582031 1.84375 23.28125 1.84375 C 17.3125 1.84375 12.671875 0.578125 9.359375 -1.953125 C 6.054688 -4.492188 4.40625 -8.007812 4.40625 -12.5 C 4.40625 -16.414062 5.488281 -19.640625 7.65625 -22.171875 C 9.820312 -24.703125 13.476562 -26.90625 18.625 -28.78125 C 23.769531 -30.664062 30.875 -32.585938 39.9375 -34.546875 C 40.507812 -34.628906 41.160156 -34.75 41.890625 -34.90625 C 42.628906 -35.070312 43.328125 -35.238281 43.984375 -35.40625 L 43.984375 -41.78125 C 43.984375 -46.03125 43.226562 -49.03125 41.71875 -50.78125 C 40.207031 -52.539062 37.613281 -53.421875 33.9375 -53.421875 C 31.488281 -53.421875 29.363281 -53.03125 27.5625 -52.25 C 25.769531 -51.476562 24.875 -50.5625 24.875 -49.5 C 24.875 -49.332031 25.117188 -48.859375 25.609375 -48.078125 C 26.097656 -47.304688 26.566406 -46.429688 27.015625 -45.453125 C 27.460938 -44.472656 27.6875 -43.578125 27.6875 -42.765625 C 27.6875 -40.472656 26.726562 -38.570312 24.8125 -37.0625 C 22.894531 -35.550781 20.503906 -34.796875 17.640625 -34.796875 C 14.867188 -34.796875 12.519531 -35.671875 10.59375 -37.421875 C 8.675781 -39.179688 7.71875 -41.367188 7.71875 -43.984375 C 7.71875 -48.804688 10.269531 -52.644531 15.375 -55.5 C 20.476562 -58.351562 27.238281 -59.78125 35.65625 -59.78125 C 44.550781 -59.78125 51.367188 -58.269531 56.109375 -55.25 C 60.847656 -52.226562 63.21875 -46.796875 63.21875 -38.953125 L 63.21875 -17.390625 C 63.21875 -13.878906 63.441406 -11.53125 63.890625 -10.34375 C 64.335938 -9.164062 65.21875 -8.578125 66.53125 -8.578125 C 67.175781 -8.578125 67.96875 -8.863281 68.90625 -9.4375 C 69.851562 -10.007812 70.648438 -10.296875 71.296875 -10.296875 C 72.523438 -10.296875 73.140625 -9.640625 73.140625 -8.328125 Z M 43.984375 -21.9375 L 43.984375 -28.796875 L 37.484375 -27.328125 C 33.078125 -26.335938 29.875 -24.84375 27.875 -22.84375 C 25.875 -20.84375 24.875 -18.25 24.875 -15.0625 C 24.875 -12.457031 25.585938 -10.378906 27.015625 -8.828125 C 28.441406 -7.273438 30.34375 -6.5 32.71875 -6.5 C 36.144531 -6.5 38.878906 -7.882812 40.921875 -10.65625 C 42.960938 -13.4375 43.984375 -17.195312 43.984375 -21.9375 Z M 43.984375 -21.9375 "/></g></g><g style="fill:#282a3e;fill-opacity:1;"><g transform="translate(186.706392, 122.80542)"><path style="stroke:none" d="M 49.625 -19.96875 C 49.625 -16.132812 48.863281 -12.539062 47.34375 -9.1875 C 45.832031 -5.84375 43.546875 -3.164062 40.484375 -1.15625 C 37.421875 0.84375 33.5625 1.84375 28.90625 1.84375 C 21.71875 1.84375 16.78125 -0.40625 14.09375 -4.90625 C 13.4375 -6.039062 12.90625 -7.238281 12.5 -8.5 C 12.09375 -9.769531 11.828125 -11.382812 11.703125 -13.34375 C 11.578125 -15.3125 11.515625 -17.96875 11.515625 -21.3125 L 11.515625 -50.59375 L 2.8125 -50.59375 L 2.8125 -56.96875 C 14.332031 -58.28125 21.070312 -66.691406 23.03125 -82.203125 L 30.75 -82.203125 L 30.75 -57.953125 L 46.671875 -57.953125 L 46.671875 -50.59375 L 30.75 -50.59375 L 30.75 -19.109375 C 30.75 -14.941406 31.054688 -12.144531 31.671875 -10.71875 C 32.285156 -9.289062 33.488281 -8.578125 35.28125 -8.578125 C 37.894531 -8.578125 39.832031 -9.820312 41.09375 -12.3125 C 42.363281 -14.800781 43 -18.289062 43 -22.78125 L 49.5 -22.78125 C 49.582031 -22.21875 49.625 -21.6875 49.625 -21.1875 C 49.625 -20.695312 49.625 -20.289062 49.625 -19.96875 Z M 49.625 -19.96875 "/></g></g><g style="fill:#282a3e;fill-opacity:1;"><g transform="translate(230.934569, 122.80542)"><path style="stroke:none" d="M 81.59375 0 L 44.234375 0 L 44.234375 -6.25 C 47.828125 -6.25 50.132812 -6.59375 51.15625 -7.28125 C 52.175781 -7.976562 52.6875 -9.515625 52.6875 -11.890625 L 52.6875 -36.390625 C 52.6875 -44.390625 49.785156 -48.390625 43.984375 -48.390625 C 41.691406 -48.390625 39.566406 -47.734375 37.609375 -46.421875 C 35.648438 -45.117188 34.179688 -43.367188 33.203125 -41.171875 C 32.546875 -39.691406 32.070312 -38.070312 31.78125 -36.3125 C 31.5 -34.5625 31.359375 -32.300781 31.359375 -29.53125 L 31.359375 -12 C 31.359375 -9.46875 31.867188 -7.875 32.890625 -7.21875 C 33.910156 -6.570312 36.175781 -6.25 39.6875 -6.25 L 39.6875 0 L 2.328125 0 L 2.328125 -6.25 L 4.046875 -6.25 C 6.742188 -6.25 8.640625 -6.367188 9.734375 -6.609375 C 10.835938 -6.859375 11.507812 -7.390625 11.75 -8.203125 C 12 -9.023438 12.125 -10.253906 12.125 -11.890625 L 12.125 -70.328125 C 12.125 -74.242188 11.976562 -77.019531 11.6875 -78.65625 C 11.40625 -80.289062 10.734375 -81.289062 9.671875 -81.65625 C 8.617188 -82.019531 6.820312 -82.203125 4.28125 -82.203125 L 1.953125 -82.203125 L 1.953125 -88.453125 L 31.359375 -90.296875 L 31.359375 -48.515625 C 33.972656 -52.429688 36.929688 -55.285156 40.234375 -57.078125 C 43.546875 -58.878906 47.53125 -59.78125 52.1875 -59.78125 C 58.800781 -59.78125 63.828125 -57.820312 67.265625 -53.90625 C 68.898438 -52.113281 70.082031 -49.988281 70.8125 -47.53125 C 71.550781 -45.082031 71.921875 -41.941406 71.921875 -38.109375 L 71.921875 -12 C 71.921875 -10.375 72.039062 -9.128906 72.28125 -8.265625 C 72.53125 -7.410156 73.203125 -6.859375 74.296875 -6.609375 C 75.398438 -6.367188 77.257812 -6.25 79.875 -6.25 L 81.59375 -6.25 Z M 81.59375 0 "/></g></g><g style="fill:#282a3e;fill-opacity:1;"><g transform="translate(307.506843, 122.80542)"><path style="stroke:none" d="M 66.15625 -17.640625 C 60.84375 -4.648438 51.125 1.84375 37 1.84375 C 30.21875 1.84375 24.351562 0.535156 19.40625 -2.078125 C 14.46875 -4.691406 10.648438 -8.265625 7.953125 -12.796875 C 5.265625 -17.335938 3.921875 -22.546875 3.921875 -28.421875 C 3.921875 -34.304688 5.347656 -39.613281 8.203125 -44.34375 C 11.066406 -49.082031 14.988281 -52.835938 19.96875 -55.609375 C 24.945312 -58.390625 30.582031 -59.78125 36.875 -59.78125 C 42.84375 -59.78125 48.007812 -58.554688 52.375 -56.109375 C 56.75 -53.660156 60.140625 -50.207031 62.546875 -45.75 C 64.953125 -41.300781 66.15625 -36.015625 66.15625 -29.890625 L 66.15625 -27.9375 L 25.109375 -27.9375 C 25.109375 -20.09375 26.703125 -14.554688 29.890625 -11.328125 C 33.078125 -8.109375 37.039062 -6.5 41.78125 -6.5 C 45.78125 -6.5 49.226562 -7.578125 52.125 -9.734375 C 55.03125 -11.898438 57.707031 -15.351562 60.15625 -20.09375 Z M 46.921875 -38.59375 C 46.921875 -48.476562 43.695312 -53.421875 37.25 -53.421875 C 33.570312 -53.421875 30.648438 -51.742188 28.484375 -48.390625 C 26.316406 -45.046875 25.234375 -40.472656 25.234375 -34.671875 L 43.609375 -34.671875 C 44.835938 -34.671875 45.695312 -34.957031 46.1875 -35.53125 C 46.675781 -36.101562 46.921875 -37.125 46.921875 -38.59375 Z M 46.921875 -38.59375 "/></g></g><g style="fill:#282a3e;fill-opacity:1;"><g transform="translate(370.479916, 122.80542)"><path style="stroke:none" d="M 81.71875 -1.34375 L 53.171875 0 L 53.171875 -10.046875 C 49.660156 -5.710938 46.25 -2.644531 42.9375 -0.84375 C 39.632812 0.945312 35.816406 1.84375 31.484375 1.84375 C 27.316406 1.84375 23.660156 0.925781 20.515625 -0.90625 C 17.367188 -2.75 14.984375 -5.347656 13.359375 -8.703125 C 12.785156 -9.835938 12.351562 -10.957031 12.0625 -12.0625 C 11.78125 -13.164062 11.597656 -14.578125 11.515625 -16.296875 C 11.429688 -18.015625 11.390625 -20.382812 11.390625 -23.40625 L 11.390625 -38.953125 C 11.390625 -42.878906 11.242188 -45.65625 10.953125 -47.28125 C 10.671875 -48.914062 10 -49.914062 8.9375 -50.28125 C 7.875 -50.65625 6.078125 -50.84375 3.546875 -50.84375 L 1.59375 -50.84375 L 1.59375 -57.09375 L 30.625 -57.953125 L 30.625 -22.671875 C 30.625 -18.015625 31.316406 -14.664062 32.703125 -12.625 C 34.097656 -10.582031 36.304688 -9.5625 39.328125 -9.5625 C 41.691406 -9.5625 43.851562 -10.210938 45.8125 -11.515625 C 47.78125 -12.828125 49.253906 -14.503906 50.234375 -16.546875 C 51.046875 -18.097656 51.59375 -19.832031 51.875 -21.75 C 52.164062 -23.664062 52.3125 -26.132812 52.3125 -29.15625 L 52.3125 -38.953125 C 52.3125 -42.796875 52.164062 -45.535156 51.875 -47.171875 C 51.59375 -48.804688 50.921875 -49.828125 49.859375 -50.234375 C 48.796875 -50.640625 47 -50.84375 44.46875 -50.84375 L 42.515625 -50.84375 L 42.515625 -57.09375 L 71.546875 -57.953125 L 71.546875 -13.234375 C 71.546875 -11.023438 71.953125 -9.59375 72.765625 -8.9375 C 73.585938 -8.289062 75.425781 -7.96875 78.28125 -7.96875 L 81.71875 -7.96875 Z M 81.71875 -1.34375 "/></g></g><g style="fill:#282a3e;fill-opacity:1;"><g transform="translate(447.052237, 122.80542)"><path style="stroke:none" d="M 57.09375 -18.984375 C 57.09375 -14.898438 56.050781 -11.285156 53.96875 -8.140625 C 51.882812 -5.003906 48.984375 -2.554688 45.265625 -0.796875 C 41.546875 0.960938 37.28125 1.84375 32.46875 1.84375 C 25.769531 1.84375 20.007812 0.410156 15.1875 -2.453125 L 10.40625 -0.25 L 5.265625 -0.25 L 4.65625 -21.4375 L 10.171875 -21.4375 C 13.109375 -15.632812 16.375 -11.363281 19.96875 -8.625 C 23.5625 -5.894531 27.726562 -4.53125 32.46875 -4.53125 C 35.738281 -4.53125 38.3125 -5.179688 40.1875 -6.484375 C 42.0625 -7.796875 43 -9.554688 43 -11.765625 C 43 -13.640625 42.34375 -15.128906 41.03125 -16.234375 C 39.726562 -17.335938 37.523438 -18.21875 34.421875 -18.875 L 25.484375 -20.828125 C 21.484375 -21.722656 18.421875 -22.660156 16.296875 -23.640625 C 14.171875 -24.617188 12.171875 -26.007812 10.296875 -27.8125 C 6.859375 -31.082031 5.140625 -35.125 5.140625 -39.9375 C 5.140625 -43.78125 6.160156 -47.191406 8.203125 -50.171875 C 10.242188 -53.148438 13.039062 -55.492188 16.59375 -57.203125 C 20.15625 -58.921875 24.222656 -59.78125 28.796875 -59.78125 C 34.429688 -59.78125 39.492188 -58.472656 43.984375 -55.859375 L 48.515625 -58.5625 L 53.78125 -58.5625 L 54.28125 -39.203125 L 48.515625 -39.203125 C 45.492188 -44.265625 42.453125 -47.898438 39.390625 -50.109375 C 36.328125 -52.316406 32.832031 -53.421875 28.90625 -53.421875 C 25.882812 -53.421875 23.414062 -52.765625 21.5 -51.453125 C 19.582031 -50.148438 18.625 -48.4375 18.625 -46.3125 C 18.625 -44.757812 19.132812 -43.570312 20.15625 -42.75 C 21.175781 -41.9375 23.195312 -41.125 26.21875 -40.3125 L 37.25 -37.609375 C 40.1875 -36.878906 42.53125 -36.226562 44.28125 -35.65625 C 46.039062 -35.082031 47.472656 -34.488281 48.578125 -33.875 C 49.679688 -33.257812 50.765625 -32.460938 51.828125 -31.484375 C 55.335938 -28.378906 57.09375 -24.210938 57.09375 -18.984375 Z M 57.09375 -18.984375 "/></g></g><g style="fill:#282a3e;fill-opacity:1;"><g transform="translate(500.959143, 122.80542)"><path style="stroke:none" d="M 97.15625 -45.203125 C 97.15625 -36.796875 95.703125 -29.363281 92.796875 -22.90625 C 89.898438 -16.457031 85.71875 -11.3125 80.25 -7.46875 C 76.488281 -4.851562 72.015625 -2.953125 66.828125 -1.765625 C 61.640625 -0.585938 55.164062 0 47.40625 0 L 2.328125 0 L 2.328125 -6.609375 L 4.171875 -6.609375 C 7.347656 -6.609375 9.671875 -6.75 11.140625 -7.03125 C 12.617188 -7.320312 13.644531 -7.796875 14.21875 -8.453125 C 14.539062 -8.773438 14.742188 -9.160156 14.828125 -9.609375 C 14.910156 -10.066406 14.96875 -10.882812 15 -12.0625 C 15.039062 -13.25 15.0625 -15.109375 15.0625 -17.640625 L 15.0625 -70.8125 C 15.0625 -73.425781 15.039062 -75.304688 15 -76.453125 C 14.96875 -77.597656 14.910156 -78.394531 14.828125 -78.84375 C 14.742188 -79.289062 14.539062 -79.675781 14.21875 -80 C 13.644531 -80.65625 12.617188 -81.125 11.140625 -81.40625 C 9.671875 -81.695312 7.347656 -81.84375 4.171875 -81.84375 L 2.328125 -81.84375 L 2.328125 -88.453125 L 45.9375 -88.453125 C 51.738281 -88.453125 56.679688 -88.25 60.765625 -87.84375 C 64.847656 -87.4375 68.398438 -86.742188 71.421875 -85.765625 C 74.441406 -84.785156 77.179688 -83.476562 79.640625 -81.84375 C 91.316406 -74.164062 97.15625 -61.953125 97.15625 -45.203125 Z M 72.78125 -45.453125 C 72.78125 -69.710938 64.363281 -81.84375 47.53125 -81.84375 L 44.46875 -81.84375 C 41.53125 -81.84375 39.570312 -81.351562 38.59375 -80.375 C 37.613281 -79.394531 37.125 -77.429688 37.125 -74.484375 L 37.125 -14.578125 C 37.125 -11.304688 37.59375 -9.160156 38.53125 -8.140625 C 39.46875 -7.117188 41.445312 -6.609375 44.46875 -6.609375 L 47.046875 -6.609375 C 56.191406 -6.609375 62.765625 -9.710938 66.765625 -15.921875 C 70.773438 -22.128906 72.78125 -31.972656 72.78125 -45.453125 Z M 72.78125 -45.453125 "/></g></g><g style="fill:#282a3e;fill-opacity:1;"><g transform="translate(595.663749, 122.80542)"><path style="stroke:none" d="M 81.71875 -1.34375 L 53.171875 0 L 53.171875 -10.046875 C 49.660156 -5.710938 46.25 -2.644531 42.9375 -0.84375 C 39.632812 0.945312 35.816406 1.84375 31.484375 1.84375 C 27.316406 1.84375 23.660156 0.925781 20.515625 -0.90625 C 17.367188 -2.75 14.984375 -5.347656 13.359375 -8.703125 C 12.785156 -9.835938 12.351562 -10.957031 12.0625 -12.0625 C 11.78125 -13.164062 11.597656 -14.578125 11.515625 -16.296875 C 11.429688 -18.015625 11.390625 -20.382812 11.390625 -23.40625 L 11.390625 -38.953125 C 11.390625 -42.878906 11.242188 -45.65625 10.953125 -47.28125 C 10.671875 -48.914062 10 -49.914062 8.9375 -50.28125 C 7.875 -50.65625 6.078125 -50.84375 3.546875 -50.84375 L 1.59375 -50.84375 L 1.59375 -57.09375 L 30.625 -57.953125 L 30.625 -22.671875 C 30.625 -18.015625 31.316406 -14.664062 32.703125 -12.625 C 34.097656 -10.582031 36.304688 -9.5625 39.328125 -9.5625 C 41.691406 -9.5625 43.851562 -10.210938 45.8125 -11.515625 C 47.78125 -12.828125 49.253906 -14.503906 50.234375 -16.546875 C 51.046875 -18.097656 51.59375 -19.832031 51.875 -21.75 C 52.164062 -23.664062 52.3125 -26.132812 52.3125 -29.15625 L 52.3125 -38.953125 C 52.3125 -42.796875 52.164062 -45.535156 51.875 -47.171875 C 51.59375 -48.804688 50.921875 -49.828125 49.859375 -50.234375 C 48.796875 -50.640625 47 -50.84375 44.46875 -50.84375 L 42.515625 -50.84375 L 42.515625 -57.09375 L 71.546875 -57.953125 L 71.546875 -13.234375 C 71.546875 -11.023438 71.953125 -9.59375 72.765625 -8.9375 C 73.585938 -8.289062 75.425781 -7.96875 78.28125 -7.96875 L 81.71875 -7.96875 Z M 81.71875 -1.34375 "/></g></g><g style="fill:#282a3e;fill-opacity:1;"><g transform="translate(672.236023, 122.80542)"><path style="stroke:none" d="M 73.140625 -8.328125 C 73.140625 -6.617188 72.503906 -4.988281 71.234375 -3.4375 C 69.972656 -1.882812 68.320312 -0.617188 66.28125 0.359375 C 64.238281 1.347656 62.035156 1.84375 59.671875 1.84375 C 56.566406 1.84375 53.890625 1.085938 51.640625 -0.421875 C 49.390625 -1.941406 47.734375 -4.085938 46.671875 -6.859375 C 43.410156 -3.671875 40.019531 -1.421875 36.5 -0.109375 C 32.988281 1.191406 28.582031 1.84375 23.28125 1.84375 C 17.3125 1.84375 12.671875 0.578125 9.359375 -1.953125 C 6.054688 -4.492188 4.40625 -8.007812 4.40625 -12.5 C 4.40625 -16.414062 5.488281 -19.640625 7.65625 -22.171875 C 9.820312 -24.703125 13.476562 -26.90625 18.625 -28.78125 C 23.769531 -30.664062 30.875 -32.585938 39.9375 -34.546875 C 40.507812 -34.628906 41.160156 -34.75 41.890625 -34.90625 C 42.628906 -35.070312 43.328125 -35.238281 43.984375 -35.40625 L 43.984375 -41.78125 C 43.984375 -46.03125 43.226562 -49.03125 41.71875 -50.78125 C 40.207031 -52.539062 37.613281 -53.421875 33.9375 -53.421875 C 31.488281 -53.421875 29.363281 -53.03125 27.5625 -52.25 C 25.769531 -51.476562 24.875 -50.5625 24.875 -49.5 C 24.875 -49.332031 25.117188 -48.859375 25.609375 -48.078125 C 26.097656 -47.304688 26.566406 -46.429688 27.015625 -45.453125 C 27.460938 -44.472656 27.6875 -43.578125 27.6875 -42.765625 C 27.6875 -40.472656 26.726562 -38.570312 24.8125 -37.0625 C 22.894531 -35.550781 20.503906 -34.796875 17.640625 -34.796875 C 14.867188 -34.796875 12.519531 -35.671875 10.59375 -37.421875 C 8.675781 -39.179688 7.71875 -41.367188 7.71875 -43.984375 C 7.71875 -48.804688 10.269531 -52.644531 15.375 -55.5 C 20.476562 -58.351562 27.238281 -59.78125 35.65625 -59.78125 C 44.550781 -59.78125 51.367188 -58.269531 56.109375 -55.25 C 60.847656 -52.226562 63.21875 -46.796875 63.21875 -38.953125 L 63.21875 -17.390625 C 63.21875 -13.878906 63.441406 -11.53125 63.890625 -10.34375 C 64.335938 -9.164062 65.21875 -8.578125 66.53125 -8.578125 C 67.175781 -8.578125 67.96875 -8.863281 68.90625 -9.4375 C 69.851562 -10.007812 70.648438 -10.296875 71.296875 -10.296875 C 72.523438 -10.296875 73.140625 -9.640625 73.140625 -8.328125 Z M 43.984375 -21.9375 L 43.984375 -28.796875 L 37.484375 -27.328125 C 33.078125 -26.335938 29.875 -24.84375 27.875 -22.84375 C 25.875 -20.84375 24.875 -18.25 24.875 -15.0625 C 24.875 -12.457031 25.585938 -10.378906 27.015625 -8.828125 C 28.441406 -7.273438 30.34375 -6.5 32.71875 -6.5 C 36.144531 -6.5 38.878906 -7.882812 40.921875 -10.65625 C 42.960938 -13.4375 43.984375 -17.195312 43.984375 -21.9375 Z M 43.984375 -21.9375 "/></g></g><g style="fill:#282a3e;fill-opacity:1;"><g transform="translate(739.742178, 122.80542)"><path style="stroke:none" d="M 63.34375 -47.40625 C 63.34375 -44.382812 62.34375 -41.875 60.34375 -39.875 C 58.34375 -37.875 55.828125 -36.875 52.796875 -36.875 C 50.191406 -36.875 48.007812 -37.726562 46.25 -39.4375 C 44.488281 -41.15625 43.609375 -43.320312 43.609375 -45.9375 C 43.609375 -47.820312 44.304688 -49.742188 45.703125 -51.703125 C 43.660156 -51.128906 41.921875 -50.226562 40.484375 -49 C 39.054688 -47.78125 37.691406 -46.023438 36.390625 -43.734375 C 34.835938 -41.035156 33.585938 -37.5 32.640625 -33.125 C 31.703125 -28.757812 31.234375 -24.414062 31.234375 -20.09375 L 31.234375 -12 C 31.234375 -9.46875 31.785156 -7.875 32.890625 -7.21875 C 33.992188 -6.570312 36.507812 -6.25 40.4375 -6.25 L 43.125 -6.25 L 43.125 0 L 2.203125 0 L 2.203125 -6.25 L 3.921875 -6.25 C 6.535156 -6.25 8.394531 -6.367188 9.5 -6.609375 C 10.601562 -6.859375 11.273438 -7.410156 11.515625 -8.265625 C 11.765625 -9.128906 11.890625 -10.375 11.890625 -12 L 11.890625 -38.953125 C 11.890625 -42.796875 11.742188 -45.535156 11.453125 -47.171875 C 11.171875 -48.804688 10.5 -49.828125 9.4375 -50.234375 C 8.375 -50.640625 6.578125 -50.84375 4.046875 -50.84375 L 2.203125 -50.84375 L 2.203125 -57.09375 L 29.53125 -57.953125 L 29.53125 -43.125 C 33.851562 -54.226562 40.628906 -59.78125 49.859375 -59.78125 C 53.785156 -59.78125 57.015625 -58.613281 59.546875 -56.28125 C 62.078125 -53.957031 63.34375 -51 63.34375 -47.40625 Z M 63.34375 -47.40625 "/></g></g><g style="fill:#282a3e;fill-opacity:1;"><g transform="translate(798.427212, 122.80542)"><path style="stroke:none" d="M 49.625 -19.96875 C 49.625 -16.132812 48.863281 -12.539062 47.34375 -9.1875 C 45.832031 -5.84375 43.546875 -3.164062 40.484375 -1.15625 C 37.421875 0.84375 33.5625 1.84375 28.90625 1.84375 C 21.71875 1.84375 16.78125 -0.40625 14.09375 -4.90625 C 13.4375 -6.039062 12.90625 -7.238281 12.5 -8.5 C 12.09375 -9.769531 11.828125 -11.382812 11.703125 -13.34375 C 11.578125 -15.3125 11.515625 -17.96875 11.515625 -21.3125 L 11.515625 -50.59375 L 2.8125 -50.59375 L 2.8125 -56.96875 C 14.332031 -58.28125 21.070312 -66.691406 23.03125 -82.203125 L 30.75 -82.203125 L 30.75 -57.953125 L 46.671875 -57.953125 L 46.671875 -50.59375 L 30.75 -50.59375 L 30.75 -19.109375 C 30.75 -14.941406 31.054688 -12.144531 31.671875 -10.71875 C 32.285156 -9.289062 33.488281 -8.578125 35.28125 -8.578125 C 37.894531 -8.578125 39.832031 -9.820312 41.09375 -12.3125 C 42.363281 -14.800781 43 -18.289062 43 -22.78125 L 49.5 -22.78125 C 49.582031 -22.21875 49.625 -21.6875 49.625 -21.1875 C 49.625 -20.695312 49.625 -20.289062 49.625 -19.96875 Z M 49.625 -19.96875 "/></g></g><g style="fill:#282a3e;fill-opacity:1;"><g transform="translate(843.880516, 122.80542)"><path style="stroke:none" d="M 66.15625 -17.640625 C 60.84375 -4.648438 51.125 1.84375 37 1.84375 C 30.21875 1.84375 24.351562 0.535156 19.40625 -2.078125 C 14.46875 -4.691406 10.648438 -8.265625 7.953125 -12.796875 C 5.265625 -17.335938 3.921875 -22.546875 3.921875 -28.421875 C 3.921875 -34.304688 5.347656 -39.613281 8.203125 -44.34375 C 11.066406 -49.082031 14.988281 -52.835938 19.96875 -55.609375 C 24.945312 -58.390625 30.582031 -59.78125 36.875 -59.78125 C 42.84375 -59.78125 48.007812 -58.554688 52.375 -56.109375 C 56.75 -53.660156 60.140625 -50.207031 62.546875 -45.75 C 64.953125 -41.300781 66.15625 -36.015625 66.15625 -29.890625 L 66.15625 -27.9375 L 25.109375 -27.9375 C 25.109375 -20.09375 26.703125 -14.554688 29.890625 -11.328125 C 33.078125 -8.109375 37.039062 -6.5 41.78125 -6.5 C 45.78125 -6.5 49.226562 -7.578125 52.125 -9.734375 C 55.03125 -11.898438 57.707031 -15.351562 60.15625 -20.09375 Z M 46.921875 -38.59375 C 46.921875 -48.476562 43.695312 -53.421875 37.25 -53.421875 C 33.570312 -53.421875 30.648438 -51.742188 28.484375 -48.390625 C 26.316406 -45.046875 25.234375 -40.472656 25.234375 -34.671875 L 43.609375 -34.671875 C 44.835938 -34.671875 45.695312 -34.957031 46.1875 -35.53125 C 46.675781 -36.101562 46.921875 -37.125 46.921875 -38.59375 Z M 46.921875 -38.59375 "/></g></g><g style="fill:#282a3e;fill-opacity:1;"><g transform="translate(906.853588, 122.80542)"><path style="stroke:none" d=""/></g></g><g style="fill:#282a3e;fill-opacity:1;"><g transform="translate(934.664649, 122.80542)"><path style="stroke:none" d="M 88.578125 -30.625 C 86.285156 -19.6875 81.953125 -11.539062 75.578125 -6.1875 C 69.210938 -0.832031 60.597656 1.84375 49.734375 1.84375 C 42.546875 1.84375 36.273438 0.757812 30.921875 -1.40625 C 25.578125 -3.570312 20.785156 -6.984375 16.546875 -11.640625 C 12.617188 -15.960938 9.695312 -20.695312 7.78125 -25.84375 C 5.863281 -30.988281 4.90625 -36.75 4.90625 -43.125 C 4.90625 -49.988281 6.046875 -56.296875 8.328125 -62.046875 C 10.617188 -67.804688 13.828125 -72.789062 17.953125 -77 C 22.078125 -81.207031 26.976562 -84.472656 32.65625 -86.796875 C 38.332031 -89.128906 44.519531 -90.296875 51.21875 -90.296875 C 55.539062 -90.296875 59.351562 -89.820312 62.65625 -88.875 C 65.96875 -87.9375 69.625 -86.242188 73.625 -83.796875 L 80.25 -89.796875 L 85.515625 -89.796875 L 86.734375 -54.765625 L 80.25 -54.03125 C 77.46875 -64.238281 73.789062 -71.769531 69.21875 -76.625 C 64.644531 -81.488281 58.96875 -83.921875 52.1875 -83.921875 C 44.675781 -83.921875 38.976562 -80.65625 35.09375 -74.125 C 31.21875 -67.59375 29.28125 -57.992188 29.28125 -45.328125 C 29.28125 -31.847656 31.28125 -21.882812 35.28125 -15.4375 C 39.28125 -8.988281 45.445312 -5.765625 53.78125 -5.765625 C 60.8125 -5.765625 66.691406 -8.085938 71.421875 -12.734375 C 76.160156 -17.390625 79.347656 -23.96875 80.984375 -32.46875 Z M 88.578125 -30.625 "/></g></g><g style="fill:#282a3e;fill-opacity:1;"><g transform="translate(1022.630915, 122.80542)"><path style="stroke:none" d="M 70.9375 -28.671875 C 70.9375 -22.867188 69.460938 -17.660156 66.515625 -13.046875 C 63.578125 -8.429688 59.578125 -4.796875 54.515625 -2.140625 C 49.453125 0.515625 43.695312 1.84375 37.25 1.84375 C 30.789062 1.84375 25.050781 0.515625 20.03125 -2.140625 C 15.007812 -4.796875 11.046875 -8.453125 8.140625 -13.109375 C 5.242188 -17.765625 3.796875 -23.03125 3.796875 -28.90625 C 3.796875 -34.789062 5.265625 -40.0625 8.203125 -44.71875 C 11.148438 -49.375 15.195312 -53.046875 20.34375 -55.734375 C 25.488281 -58.429688 31.285156 -59.78125 37.734375 -59.78125 C 43.941406 -59.78125 49.554688 -58.390625 54.578125 -55.609375 C 59.597656 -52.835938 63.578125 -49.101562 66.515625 -44.40625 C 69.460938 -39.71875 70.9375 -34.472656 70.9375 -28.671875 Z M 49.734375 -28.796875 C 49.734375 -33.453125 49.363281 -37.632812 48.625 -41.34375 C 47.894531 -45.0625 46.648438 -48.003906 44.890625 -50.171875 C 43.140625 -52.335938 40.671875 -53.421875 37.484375 -53.421875 C 29.160156 -53.421875 25 -45.25 25 -28.90625 C 25 -12.65625 29.125 -4.53125 37.375 -4.53125 C 41.289062 -4.53125 44.328125 -6.632812 46.484375 -10.84375 C 48.648438 -15.050781 49.734375 -21.035156 49.734375 -28.796875 Z M 49.734375 -28.796875 "/></g></g><g style="fill:#282a3e;fill-opacity:1;"><g transform="translate(1090.137071, 122.80542)"><path style="stroke:none" d="M 28.546875 -9.671875 C 28.546875 -6.492188 27.421875 -3.78125 25.171875 -1.53125 C 22.929688 0.71875 20.175781 1.84375 16.90625 1.84375 C 13.800781 1.84375 11.125 0.703125 8.875 -1.578125 C 6.632812 -3.867188 5.515625 -6.566406 5.515625 -9.671875 C 5.515625 -12.859375 6.632812 -15.570312 8.875 -17.8125 C 11.125 -20.0625 13.84375 -21.1875 17.03125 -21.1875 C 20.21875 -21.1875 22.929688 -20.0625 25.171875 -17.8125 C 27.421875 -15.570312 28.546875 -12.859375 28.546875 -9.671875 Z M 28.546875 -9.671875 "/></g></g></g></svg>